# https://github.com/mikedh/trimesh
v -0.50000000 -0.50000000 0.50000000
v -0.29664996 -0.57293278 0.57293278
v -0.31615710 -0.31615710 0.72898990
v -0.57293278 -0.29664996 0.57293278
v 0.00000000 -0.60956794 0.60956794
v 0.00000000 -0.33314046 0.78182876
v 0.00000000 0.00000000 0.83950621
v -0.33314046 0.00000000 0.78182876
v -0.60956794 0.00000000 0.60956794
v 0.29664996 -0.57293278 0.57293278
v 0.31615710 -0.31615710 0.72898990
v 0.50000000 -0.50000000 0.50000000
v 0.57293278 -0.29664996 0.57293278
v 0.60956794 0.00000000 0.60956794
v 0.33314046 0.00000000 0.78182876
v 0.31615710 0.31615710 0.72898990
v 0.00000000 0.33314046 0.78182876
v 0.57293278 0.29664996 0.57293278
v 0.50000000 0.50000000 0.50000000
v 0.29664996 0.57293278 0.57293278
v 0.00000000 0.60956794 0.60956794
v -0.31615710 0.31615710 0.72898990
v -0.57293278 0.29664996 0.57293278
v -0.29664996 0.57293278 0.57293278
v -0.50000000 0.50000000 0.50000000
v 0.31615710 -0.72898990 0.31615710
v 0.57293278 -0.57293278 0.29664996
v 0.00000000 -0.78182876 0.33314046
v -0.31615710 -0.72898990 0.31615710
v -0.57293278 -0.57293278 0.29664996
v -0.31615710 0.72898990 0.31615710
v -0.57293278 0.57293278 0.29664996
v 0.00000000 0.78182876 0.33314046
v 0.31615710 0.72898990 0.31615710
v 0.57293278 0.57293278 0.29664996
v -0.72898990 -0.31615710 0.31615710
v -0.78182876 0.00000000 0.33314046
v -0.72898990 0.31615710 0.31615710
v 0.72898990 0.31615710 0.31615710
v 0.78182876 0.00000000 0.33314046
v 0.72898990 -0.31615710 0.31615710
vn -0.59305775 -0.56933403 0.56933403
vn -0.33195415 -0.66701066 0.66701066
vn -0.34053966 -0.34053966 0.87639344
vn -0.66701066 -0.33195415 0.66701066
vn -0.00000000 -0.70710677 0.70710677
vn -0.00000000 -0.34410223 0.93893218
vn -0.00000000 -0.00000000 1.00000000
vn -0.34410223 -0.00000000 0.93893218
vn -0.70710677 -0.00000000 0.70710677
vn 0.33195415 -0.66701066 0.66701066
vn 0.34053966 -0.34053966 0.87639344
vn 0.56941372 -0.58039218 0.58216232
vn 0.66701066 -0.33195415 0.66701066
vn 0.70710677 -0.00000000 0.70710677
vn 0.34410223 -0.00000000 0.93893218
vn 0.34053966 0.34053966 0.87639344
vn -0.00000000 0.34410223 0.93893218
vn 0.66701066 0.33195415 0.66701066
vn 0.57735026 0.57735026 0.57735026
vn 0.33195415 0.66701066 0.66701066
vn 0.00000000 0.70710677 0.70710677
vn -0.34053966 0.34053966 0.87639344
vn -0.66701066 0.33195415 0.66701066
vn -0.33195415 0.66701066 0.66701066
vn -0.57735026 0.57735026 0.57735026
vn 0.34053966 -0.87639344 0.34053966
vn 0.66701066 -0.66701066 0.33195415
vn -0.00000000 -0.93893218 0.34410223
vn -0.34053966 -0.87639344 0.34053966
vn -0.66701066 -0.66701066 0.33195415
vn -0.34053966 0.87639344 0.34053966
vn -0.66701066 0.66701066 0.33195415
vn 0.00000000 0.93893218 0.34410223
vn 0.34053966 0.87639344 0.34053966
vn 0.66701066 0.66701066 0.33195415
vn -0.87639344 -0.34053966 0.34053966
vn -0.93893218 -0.00000000 0.34410223
vn -0.87639344 0.34053966 0.34053966
vn 0.87639344 0.34053966 0.34053966
vn 0.93893218 -0.00000000 0.34410223
vn 0.87639344 -0.34053966 0.34053966
f 1//1 2//2 3//3
f 1//1 3//3 4//4
f 2//2 5//5 6//6
f 2//2 6//6 3//3
f 3//3 6//6 7//7
f 3//3 7//7 8//8
f 4//4 3//3 8//8
f 4//4 8//8 9//9
f 5//5 10//10 11//11
f 5//5 11//11 6//6
f 10//10 12//12 11//11
f 12//12 13//13 11//11
f 11//11 13//13 14//14
f 11//11 14//14 15//15
f 6//6 11//11 15//15
f 6//6 15//15 7//7
f 7//7 15//15 16//16
f 7//7 16//16 17//17
f 15//15 14//14 18//18
f 15//15 18//18 16//16
f 16//16 18//18 19//19
f 16//16 19//19 20//20
f 17//17 16//16 20//20
f 17//17 20//20 21//21
f 9//9 8//8 22//22
f 9//9 22//22 23//23
f 8//8 7//7 17//17
f 8//8 17//17 22//22
f 22//22 17//17 21//21
f 22//22 21//21 24//24
f 23//23 22//22 25//25
f 22//22 24//24 25//25
f 26//26 27//27 12//12
f 26//26 12//12 10//10
f 28//28 26//26 10//10
f 28//28 10//10 5//5
f 29//29 28//28 5//5
f 29//29 5//5 2//2
f 30//30 29//29 1//1
f 29//29 2//2 1//1
f 31//31 32//32 25//25
f 31//31 25//25 24//24
f 33//33 31//31 24//24
f 33//33 24//24 21//21
f 34//34 33//33 21//21
f 34//34 21//21 20//20
f 35//35 34//34 19//19
f 34//34 20//20 19//19
f 30//30 1//1 36//36
f 1//1 4//4 36//36
f 36//36 4//4 9//9
f 36//36 9//9 37//37
f 37//37 9//9 23//23
f 37//37 23//23 38//38
f 38//38 23//23 25//25
f 38//38 25//25 32//32
f 39//39 35//35 19//19
f 39//39 19//19 18//18
f 40//40 39//39 18//18
f 40//40 18//18 14//14
f 41//41 40//40 14//14
f 41//41 14//14 13//13
f 27//27 41//41 12//12
f 41//41 13//13 12//12

