ply
format ascii 1.0
comment mesh silhouettes
element vertex 41
property float x
property float y
property float z
property float nx
property float ny
property float nz
element face 64
property list uchar int vertex_index
property uchar int
end_header
-0.5000000000000000 -0.5000000000000000 0.5000000000000000 -0.5930577599550574 -0.5693340378710416 0.5693340378710416
-0.2966499662413858 -0.5729327759190004 0.5729327759190004 -0.3319541434516223 -0.6670106620756897 0.6670106620756897
-0.3161571047497809 -0.3161571047497809 0.7289898839861606 -0.3405396560743614 -0.3405396560743614 0.8763934534679679
-0.5729327759190004 -0.2966499662413858 0.5729327759190004 -0.6670106620756897 -0.3319541434516223 0.6670106620756897
0.0000000000000000 -0.6095679375676467 0.6095679375676467 -0.0000000000000000 -0.7071067811865476 0.7071067811865476
0.0000000000000000 -0.3331404519554829 0.7818287503043265 -0.0000000000000000 -0.3441022213894249 0.9389321920324509
0.0000000000000000 0.0000000000000000 0.8395062228779742 -0.0000000000000000 -0.0000000000000000 1.0000000000000000
-0.3331404519554829 0.0000000000000000 0.7818287503043265 -0.3441022213894249 -0.0000000000000000 0.9389321920324509
-0.6095679375676467 0.0000000000000000 0.6095679375676467 -0.7071067811865476 -0.0000000000000000 0.7071067811865476
0.2966499662413858 -0.5729327759190004 0.5729327759190004 0.3319541434516223 -0.6670106620756897 0.6670106620756897
0.3161571047497809 -0.3161571047497809 0.7289898839861606 0.3405396560743614 -0.3405396560743614 0.8763934534679679
0.5000000000000000 -0.5000000000000000 0.5000000000000000 0.5694137161627980 -0.5803921654489420 0.5821623090952903
0.5729327759190004 -0.2966499662413858 0.5729327759190004 0.6670106620756897 -0.3319541434516223 0.6670106620756897
0.6095679375676467 0.0000000000000000 0.6095679375676467 0.7071067811865476 -0.0000000000000000 0.7071067811865476
0.3331404519554829 0.0000000000000000 0.7818287503043265 0.3441022213894249 -0.0000000000000000 0.9389321920324509
0.3161571047497809 0.3161571047497809 0.7289898839861606 0.3405396560743614 0.3405396560743614 0.8763934534679679
0.0000000000000000 0.3331404519554829 0.7818287503043265 -0.0000000000000000 0.3441022213894249 0.9389321920324509
0.5729327759190004 0.2966499662413858 0.5729327759190004 0.6670106620756897 0.3319541434516223 0.6670106620756897
0.5000000000000000 0.5000000000000000 0.5000000000000000 0.5773502691896257 0.5773502691896257 0.5773502691896257
0.2966499662413858 0.5729327759190004 0.5729327759190004 0.3319541434516223 0.6670106620756897 0.6670106620756897
0.0000000000000000 0.6095679375676467 0.6095679375676467 0.0000000000000000 0.7071067811865476 0.7071067811865476
-0.3161571047497809 0.3161571047497809 0.7289898839861606 -0.3405396560743614 0.3405396560743614 0.8763934534679679
-0.5729327759190004 0.2966499662413858 0.5729327759190004 -0.6670106620756897 0.3319541434516223 0.6670106620756897
-0.2966499662413858 0.5729327759190004 0.5729327759190004 -0.3319541434516223 0.6670106620756897 0.6670106620756897
-0.5000000000000000 0.5000000000000000 0.5000000000000000 -0.5773502691896257 0.5773502691896257 0.5773502691896257
0.3161571047497809 -0.7289898839861606 0.3161571047497809 0.3405396560743614 -0.8763934534679679 0.3405396560743614
0.5729327759190004 -0.5729327759190004 0.2966499662413858 0.6670106620756897 -0.6670106620756897 0.3319541434516223
0.0000000000000000 -0.7818287503043265 0.3331404519554829 -0.0000000000000000 -0.9389321920324509 0.3441022213894249
-0.3161571047497809 -0.7289898839861606 0.3161571047497809 -0.3405396560743614 -0.8763934534679679 0.3405396560743614
-0.5729327759190004 -0.5729327759190004 0.2966499662413858 -0.6670106620756897 -0.6670106620756897 0.3319541434516223
-0.3161571047497809 0.7289898839861606 0.3161571047497809 -0.3405396560743614 0.8763934534679679 0.3405396560743614
-0.5729327759190004 0.5729327759190004 0.2966499662413858 -0.6670106620756897 0.6670106620756897 0.3319541434516223
0.0000000000000000 0.7818287503043265 0.3331404519554829 0.0000000000000000 0.9389321920324509 0.3441022213894249
0.3161571047497809 0.7289898839861606 0.3161571047497809 0.3405396560743614 0.8763934534679679 0.3405396560743614
0.5729327759190004 0.5729327759190004 0.2966499662413858 0.6670106620756897 0.6670106620756897 0.3319541434516223
-0.7289898839861606 -0.3161571047497809 0.3161571047497809 -0.8763934534679679 -0.3405396560743614 0.3405396560743614
-0.7818287503043265 0.0000000000000000 0.3331404519554829 -0.9389321920324509 -0.0000000000000000 0.3441022213894249
-0.7289898839861606 0.3161571047497809 0.3161571047497809 -0.8763934534679679 0.3405396560743614 0.3405396560743614
0.7289898839861606 0.3161571047497809 0.3161571047497809 0.8763934534679679 0.3405396560743614 0.3405396560743614
0.7818287503043265 0.0000000000000000 0.3331404519554829 0.9389321920324509 -0.0000000000000000 0.3441022213894249
0.7289898839861606 -0.3161571047497809 0.3161571047497809 0.8763934534679679 -0.3405396560743614 0.3405396560743614
3 0 1 2 1
3 0 2 3 1
3 1 4 5 1
3 1 5 2 1
3 2 5 6 1
3 2 6 7 1
3 3 2 7 1
3 3 7 8 1
3 4 9 10 1
3 4 10 5 1
3 9 11 10 1
3 11 12 10 1
3 10 12 13 1
3 10 13 14 1
3 5 10 14 1
3 5 14 6 1
3 6 14 15 1
3 6 15 16 1
3 14 13 17 1
3 14 17 15 1
3 15 17 18 1
3 15 18 19 1
3 16 15 19 1
3 16 19 20 1
3 8 7 21 1
3 8 21 22 1
3 7 6 16 1
3 7 16 21 1
3 21 16 20 1
3 21 20 23 1
3 22 21 24 1
3 21 23 24 1
3 25 26 11 1
3 25 11 9 1
3 27 25 9 1
3 27 9 4 1
3 28 27 4 1
3 28 4 1 1
3 29 28 0 1
3 28 1 0 1
3 30 31 24 1
3 30 24 23 1
3 32 30 23 1
3 32 23 20 1
3 33 32 20 1
3 33 20 19 1
3 34 33 18 1
3 33 19 18 1
3 29 0 35 1
3 0 3 35 1
3 35 3 8 1
3 35 8 36 1
3 36 8 22 1
3 36 22 37 1
3 37 22 24 1
3 37 24 31 1
3 38 34 18 1
3 38 18 17 1
3 39 38 17 1
3 39 17 13 1
3 40 39 13 1
3 40 13 12 1
3 26 40 11 1
3 40 12 11 1
