ply
format ascii 1.0
comment mesh silhouettes
element vertex 487
property float x
property float y
property float z
property float nx
property float ny
property float nz
element face 802
property list uchar int vertex_index
property uchar int
end_header
0.0441889316379583 0.7486050181959417 1.1756298873523368 -0.4361087158428201 -0.4236729729060378 -0.7939209028580153
-0.0306792837982642 0.6144779473126671 1.2564066830423293 0.3380202666699523 0.2423912784017575 0.9093892277100801
0.0578368184801828 0.7076736734726734 1.1813064915651981 0.5210132042053078 0.2956309103707560 0.8007169324281062
0.0563831180474943 0.8415878477646744 1.1158826919741285 0.4352533028867243 0.4912317936469198 0.7544838548548454
-0.0473361153430228 0.4762628526306697 1.2916443243816418 0.3488520292551147 0.1469623385547475 0.9255832392233063
0.0536671198016983 0.5629630246047883 1.2248655222123059 0.5248395079729762 0.1756019472332805 0.8328910174798168
0.1462142129297995 0.6436690171588433 1.1366067593498792 0.6253039498935643 0.2215955173019910 0.7482582421591959
0.1411994146167038 0.7873161419247841 1.0851320777937117 0.5961388198697781 0.3547724485976029 0.7202464974995223
0.1242420031561221 0.9188807879565808 1.0167925678592600 0.5012873382986007 0.5265019876011630 0.6866634266607834
-0.0573572622503075 0.3254330074781455 1.3117641158342421 0.3702721146819934 0.0524744464818852 0.9274400215406624
0.0498265131222050 0.4091758522866010 1.2503892422120626 0.5327144019130248 0.0767161051093367 0.8428107766345312
-0.0632340401036100 0.1655488635197065 1.3143103460351098 0.3999340864580884 -0.0519371101405734 0.9150711792419103
0.0490373775512754 0.2501862422609371 1.2557399731952619 0.5579472504333896 -0.0251840836541972 0.8294941998979372
0.1488480481637486 0.3443158514346211 1.1787517693796461 0.6675868359193223 0.0082550129730522 0.7444861793667109
0.1462285372439088 0.4937886295274649 1.1694027425657989 0.6422693711816575 0.1106801034262005 0.7584457591334293
0.2304240788455220 0.5668452459506795 1.0765210590292997 0.7218230045218471 0.1371535702889888 0.6783512720560321
0.2327226687586390 0.7098055432277520 1.0333804673455100 0.7004971313072754 0.2500944799807006 0.6683984740508171
0.2316321051484085 0.4350138029410501 1.0925934960114372 0.7422048602090752 0.0424748770750137 0.6688257099570034
0.2868021275113085 0.5007102645181358 1.0212020736219189 0.7778357006323099 0.0609457680746387 0.6255055844480015
0.3030228298476981 0.6085525553781496 0.9819616649285934 0.7846383804044124 0.1398836412949330 0.6039662067486981
0.3147370303024943 0.7498829286831229 0.9211163273360226 0.7703462566490866 0.2477391158738997 0.5875304037518042
0.2252906313965053 0.8510116759184968 0.9733750012667125 0.6592678964415806 0.3841784148266032 0.6463534530756464
0.2013986311186324 0.9806592210526928 0.9024284991559318 0.5729574127688809 0.5412397586315300 0.6154505072137592
0.3104457439691498 0.8924949954725334 0.8492939427259756 0.7310091558102283 0.3814475291976991 0.5657944826441734
-0.0576831747977479 -0.5910165121047243 1.1073013204942053 0.3779497744984463 -0.3779598174014078 0.8451629099685267
0.1207329155909415 -0.4092877016716923 1.0599279700466955 0.6137825185927016 -0.2319453597093687 0.7546339311078527
0.0818649998468213 -0.2460792700574697 1.1406977787381345 0.6162702862481260 -0.2167818390013127 0.7571106712805347
-0.0651535039942552 -0.3635844557536634 1.2006262245111170 0.4247920887186655 -0.2954949672935566 0.8557069624972169
0.2536317340929576 -0.2246577760261337 0.9828058656213426 0.7218067367346197 -0.1428252228481395 0.6771971577929863
0.2106399400476943 -0.0854401237237659 1.0590346776782467 0.7258592352044473 -0.1440763996714144 0.6725848360810238
0.1809820400957848 0.0578727454535284 1.1194301798937689 0.7183714698699714 -0.1226102511639996 0.6847694192838621
0.0633336797831238 -0.0760510471770803 1.1997251031624978 0.6074489853496496 -0.1768779026559211 0.7744158687357353
-0.0674794474117168 -0.1756718118355787 1.2590517293134904 0.4317954401575534 -0.2289566681929005 0.8724285311411765
0.3654148194941217 -0.0327334479437833 0.8827118122455763 0.7910491826791144 -0.0732126454098061 0.6073558258013197
0.3204759418624143 0.0921857144507101 0.9580062422210330 0.7962474039468501 -0.0786414103349094 0.5998379783645231
0.4598763193495197 0.1610433046840480 0.7627403743934118 0.8401237250435276 -0.0142047445927895 0.5422087714617321
0.4121231765249777 0.2777570098180603 0.8409574650275399 0.8427194347411145 -0.0166034161601188 0.5380969065897241
0.3651229569523947 0.3756013580273085 0.9156712939505860 0.8346616865148482 -0.0012131157097142 0.5507616520914145
0.2821775037125718 0.2105886156513806 1.0229341100761153 0.7902731793265391 -0.0645466527518689 0.6093455765455703
0.2506483692568759 0.3216303175853765 1.0712647070850172 0.7714433976554007 -0.0270586267701027 0.6357223567967446
0.1603434424580999 0.2000800288478299 1.1609405655096061 0.6970747392835540 -0.0733161858206789 0.7132401732582602
0.3204238321132512 0.4523533208670776 0.9794942879424305 0.8150693285221825 0.0295182814015971 0.5786109753240900
0.0531964011422094 0.0890408474857421 1.2384983167896257 0.5868478458091665 -0.1143347584743424 0.8015841620651911
-0.0666349262026618 -0.0008172490974240 1.2967525406218461 0.4235349010342860 -0.1511048204822175 0.8931884016448682
0.3963288074481068 0.9053323241975426 0.7151544588883720 0.7979010184398933 0.3520752186538504 0.4892821324986479
0.3934063340152025 0.7539024801000023 0.8047969422231311 0.8284616093422488 0.2168237875659151 0.5163708037753705
0.4840900169003988 0.8853905889999183 0.5710639814207414 0.8491008645019514 0.3057026332283589 0.4307825692147794
0.4691705518119194 0.7207438139304976 0.6861993523824369 0.8676451396229824 0.1735326415355625 0.4659166599407080
0.3674010466291125 0.5987834149372954 0.8927070549903088 0.8326054114241338 0.1087398928611879 0.5430873452473243
0.4282195599301301 0.5480686323408287 0.8026115790475522 0.8603557455758403 0.0741708955515326 0.5042684496453488
0.6027216794008202 0.5336356737039561 0.4676824495339214 0.9084601048185517 0.0955157313025256 0.4069115174418266
0.5410032803008181 0.6497995077442479 0.5690004940630110 0.8916224098862200 0.1309559287149395 0.4334282211890421
0.4860090167291209 0.4653116236962657 0.7108593194805983 0.8736993728277587 0.0500242426378881 0.4838873640310179
0.5388897184817142 0.3511878145741490 0.6247180024965459 0.8778664133936473 0.0403897034230171 0.4771993630473270
0.0412616346299716 0.9634458690923596 1.0233979703281524 0.1688034495055259 0.6801349895427324 0.7133875464533584
0.0238476821451140 0.9100518815705660 1.0698206314102103 -0.8834339364676008 -0.3309351545135252 -0.3317022812771541
0.0912385220068984 1.0332087273845660 0.9332971494461249 0.3388198396398425 0.6828494389827678 0.6472385649413597
0.0487767236010341 1.1271340277999649 0.8388893303043203 0.1384896983013751 0.7869007561667939 0.6013383435375813
0.0120315110544705 1.0648562286476388 0.9160175793500107 -0.2091385459866876 0.7295177157552429 0.6512027111290515
0.0115489574583491 0.9878450703482380 0.9767207131005712 -0.9706899456409462 -0.2390119871199042 0.0251853021536682
0.1585954035812011 1.0907635843989021 0.8253016158938404 0.4466778936342971 0.6846713564543540 0.5759374905225241
0.0610398758357628 0.8306100525117202 1.1056445472610028 -0.5400376673656415 -0.5716471342293683 -0.6177207069166675
0.0408827067174579 0.7205558448794100 1.1908469351608137 -0.4140036106707009 -0.3586245770225125 -0.8366537056076706
0.0481762914232724 0.9268605597262728 1.0014242295949702 -0.6675638133196186 -0.6445329828204130 -0.3727409143128652
0.1193038954959377 0.8567973336130889 1.0069316951865732 -0.6114868131014237 -0.6783321499214581 -0.4073688399791975
0.1342806493504622 0.7705731959240284 1.0968110619543572 -0.5535039959343692 -0.5647637396432618 -0.6121072168083332
0.1187805606264146 0.6775335524857931 1.1672521877170121 -0.4669634999493075 -0.3261271882055247 -0.8219404764508507
0.0216679567901937 1.0035700352543679 0.8876413625434194 -0.7411995118891003 -0.6444169435841781 -0.1880161865292073
0.0914998929748542 0.9284308490726073 0.9051326442687363 -0.6538398357172748 -0.7158644370578749 -0.2450134220507500
0.1749168760616260 0.8550503621497271 0.9034808494277914 -0.6384995239083507 -0.7268748946486726 -0.2529253753546500
0.2075968726920099 0.7860222428694497 0.9903289340296664 -0.6298933699035935 -0.6688334860253230 -0.3948368150549146
0.1512897302758486 0.9008914060044330 0.8126647108249220 -0.6500648803134075 -0.7412075021461265 -0.1674129330291274
0.2173182342392490 0.8416559837098755 0.8187444231440717 -0.6514131743240446 -0.7400901379578358 -0.1671151220405367
0.2559939195571004 0.7910083729702062 0.8767935636364956 -0.6662235153185125 -0.7103108895410802 -0.2271666081007572
0.2993792002829684 0.7176422185154260 0.9493233131490250 -0.6853984296877711 -0.6398330841267930 -0.3476242469079708
0.2265985440299478 0.7052207825466914 1.0676154712592116 -0.6096850261308534 -0.5351990292275436 -0.5846761223324547
0.2139755658452392 0.6211133722979981 1.1290235960170505 -0.5411937771264966 -0.2700292981831660 -0.7963626521392516
0.3241427127340706 0.6363874131565340 1.0172170090684078 -0.6948910216174629 -0.4856212201266607 -0.5303758088734177
0.3126809640612400 0.5558069608897040 1.0731175717831369 -0.6379716706239923 -0.1737650513510477 -0.7501985433271648
0.6186016312075472 0.2443498446433290 0.5910165121047243 -0.5877907995911736 0.6881887725220496 -0.4253212777308037
0.5573186528948550 0.3324324412410588 0.7704641181049366 -0.7597508168255347 0.3501940720397409 -0.5478529074862681
0.5834411023603361 0.4272106914939457 0.7249479879433691 -0.8799523207320341 -0.2797372443821344 -0.3839674300559844
0.6624679116232279 0.3671558725917452 0.5805205891827522 -0.8961359396475627 -0.1911548753130008 -0.4004999267366363
0.4856214085824203 0.4105267788892432 0.8967610689475621 -0.7729294992734511 0.1307088035444912 -0.6208825958495372
0.5021833025076277 0.4965501266692536 0.8461084247335185 -0.8386909473803301 -0.3630251741163218 -0.4059682472067226
0.4632234324211690 0.5950080910267967 0.7896248012111616 -0.7680013084937269 -0.5932946575846658 -0.2411958528528576
0.5401447454739515 0.5378151377552476 0.6767721107762921 -0.7849304930704697 -0.5743621507687356 -0.2323623050592792
0.6163830306370781 0.4863265383503311 0.5470825490482981 -0.7903520415457814 -0.5604881258806184 -0.2473796902966115
0.4039547729071673 0.4851444388049846 0.9964116936938432 -0.7274234307752748 -0.0370530665100916 -0.6851877280142484
0.4162873406791202 0.5666647315522670 0.9435044076644744 -0.7790217463540596 -0.4266842832427450 -0.4594188079966863
0.3841754541562652 0.6544806858261552 0.8816566411272343 -0.7384856411107417 -0.6122972088078330 -0.2823669349612200
0.3230401366344139 0.7430661591270713 0.8158029127325115 -0.6953429033892528 -0.6962006916671230 -0.1783335179612173
0.3285613027443721 0.7626643079359225 0.6959412350887787 -0.6813850505961829 -0.7205398288996592 -0.1285953645870923
0.2465885642157197 0.8272914846526980 0.7592651953263935 -0.6656510627879909 -0.7338761045248371 -0.1354050435422132
0.2919002534909659 0.8012560875086371 0.6696347895286632 -0.6716112186144874 -0.7312976150314365 -0.1189208530094540
0.4553220381313405 0.6523713882766642 0.6216782838205482 -0.7099214128721856 -0.6875572013760307 -0.1525669767070194
0.5415412373335179 0.5892059720955266 0.5075607092706510 -0.7087060787397595 -0.6856003424509656 -0.1663967078653675
-0.0252893699104762 0.6077822334812836 1.2431923225849881 -0.3460642935203371 -0.0329062481350809 -0.9376335550650597
-0.1002559044907949 0.5802116328548711 1.2769668772116280 -0.6763403232957170 0.3319056765759771 -0.6575731053965695
0.0608946032858225 0.5845800103166714 1.2116261238414952 -0.3629537549102814 -0.0115914305351568 -0.9317350538295079
-0.0293744189399123 0.4945614014186036 1.2297254305035497 -0.2867261958396957 0.2736205957870887 -0.9181066703713764
-0.1229288066565143 0.5016243715921456 1.2628955283179848 -0.3401486465179391 0.3160781068384668 -0.8856599396209726
-0.1985536409015726 0.4750481932513876 1.2923950224160099 -0.6611006445608327 0.6893740791687011 -0.2961575876650081
0.1581433729462051 0.5403786264669849 1.1693920821332198 -0.4190899368604871 0.0602729332444116 -0.9059419398285895
0.2536355080957841 0.4825372280213631 1.1122158271128888 -0.4883572318209105 0.1921474148127371 -0.8512265180955064
0.1583414350415503 0.4178182758809880 1.1339381013466248 -0.3478858432386446 0.4390372753540502 -0.8283850016289702
0.0693829907301889 0.4647179166531326 1.1880943787685623 -0.3075677909242293 0.3227860655848256 -0.8951040218043143
-0.0352135743150577 0.3942660850820165 1.1855778563443478 -0.2307483250316311 0.5142742376374680 -0.8260007378916182
-0.1365580684101841 0.4085645390710662 1.2227990748050697 -0.2444259536636186 0.5073736468175707 -0.8263340339660891
0.0460004557402068 0.3622759242877629 1.1395375525127212 -0.2526933772638288 0.5845677496471027 -0.7709906634710453
-0.0464116790673289 0.3231284452299771 1.1348501512540248 -0.1991610332608841 0.6517320977188621 -0.7318334206863121
-0.1322782847918092 0.3270857587485776 1.1612862709356715 -0.1965014379405559 0.6444643710480513 -0.7389538952715071
-0.2452372016169457 0.3246809366800303 1.1915001427437699 -0.2309684526151053 0.6584158517165869 -0.7163394028705284
-0.2363342345076127 0.4030561332681482 1.2542620506336621 -0.3428518003340070 0.5870969448782175 -0.7333279077755008
-0.3175195941159880 0.3715076472300927 1.2832884184358651 -0.6117766053968900 0.7774509925412724 -0.1459429316056394
-0.3543659885632759 0.3083580638470660 1.2198644710133846 -0.3472592529990917 0.7248410055297145 -0.5949928805533602
-0.4404488977898002 0.2722123866004393 1.2483886582618453 -0.6009846507565905 0.7919878720153383 -0.1075762991350566
0.4358127202940282 0.1956752598760516 0.6862473508715181 -0.3089028792001162 0.8884095290079370 -0.3395696099325937
0.4421759444842235 0.2686893102887715 0.8227216812608326 -0.4324304092426045 0.7417537226757203 -0.5126454486865013
0.2404827353871324 0.1619199636910970 0.7455441618796056 -0.2167886843578394 0.9242685460570705 -0.3142138143111248
0.2732766644822833 0.2245910189727386 0.8687720025729940 -0.2773871516109511 0.8431016949254877 -0.4606906772824181
0.2637771492939784 0.2921799808764683 0.9756301451950279 -0.3313157857942133 0.7311430755591241 -0.5963720760947046
0.4006146568059233 0.3435496593587565 0.9405238230066886 -0.5096358819953869 0.5606822976639995 -0.6526152226764270
0.0316128218322847 0.1321068117348245 0.7864255643909389 -0.1745790871226816 0.9381546036800762 -0.2989783971013464
0.0799651508614971 0.1888902637403530 0.9027840828569408 -0.2066203374450722 0.8778657251011206 -0.4320414388073998
-0.1849933094377102 0.1023148234160964 0.8122884601366814 -0.1585739771897497 0.9448162032895169 -0.2866646747679369
-0.1247486239973409 0.1568883038234632 0.9264195786700609 -0.1738838499009600 0.8918632587227024 -0.4175456076695602
-0.0832222757829366 0.2180408205591126 1.0210012502363881 -0.1875884757264393 0.8220190947426648 -0.5376757123518608
0.0973790687431043 0.2511642841703800 1.0012492803306172 -0.2360173521515729 0.7972355381282056 -0.5556179498799431
0.0875489397360537 0.3119091279326842 1.0796886023265779 -0.2560051399467790 0.6965482087271279 -0.6702849850920574
0.2243299535770189 0.3584990557976321 1.0637627566283974 -0.3603208874660875 0.5925264642008398 -0.7204729330636246
-0.0581669093906343 0.2782601952028888 1.0925030222342844 -0.1980726739262152 0.7370338437860496 -0.6461797961540428
0.3358476607396509 0.4158537772489628 1.0366081286232740 -0.5290105470351698 0.3733849384577090 -0.7620574314698881
-0.9562848107736667 -0.1510165097205385 0.8353663567480533 -0.7559267286476276 0.6115683689258713 0.2335784901172312
-0.8169947880428746 -0.0424586376283508 1.0024191531397491 -0.6735350350487055 0.7351486151495820 0.0768574668174204
-0.6945896111070021 0.0323768619076457 0.9687708063218166 -0.3905480769889847 0.8855902788837404 -0.2514001939275802
-0.7699302132641614 -0.0344224259009455 0.7740299026879951 -0.3433197508857717 0.9351392043232206 -0.0874426508602380
-0.6833156061307268 0.0699769703129952 1.1072324258515571 -0.6341103884367754 0.7730702782161500 -0.0163205458047902
-0.5817830355089197 0.1211092985576041 1.0779995266194886 -0.3676243973348358 0.8490521557301340 -0.3794242208059616
-0.4353808817812420 0.1600471690587578 1.0572927140034110 -0.2319283979050976 0.8365655193722820 -0.4963540571432441
-0.5252976178902230 0.0851062968961121 0.9549783017093044 -0.2428960145595629 0.9001506971372467 -0.3615663819472289
-0.6111200777980275 0.0238555143492545 0.8308726840846026 -0.2510781372992437 0.9451275615486959 -0.2090302881674282
-0.5618111907674584 0.1719486601951825 1.1899773304898040 -0.6115714161624732 0.7869925953237854 -0.0813821715030978
-0.4690438892716604 0.2141298786189448 1.1612803545909773 -0.3547908873673359 0.7962972715486738 -0.4899327316736820
-0.3437457788904062 0.2411811456257049 1.1362692127393226 -0.2283225475285270 0.7561148390982638 -0.6133181591845215
-0.2032242103050823 0.2589317041976112 1.1124304508845733 -0.1855471983216589 0.7415747443452853 -0.6447008110311385
-0.2647556045839479 0.1899997515805191 1.0390510404050348 -0.1820623531406518 0.8289353410536080 -0.5288851481382580
-0.3304487916959964 0.1244888583091718 0.9425863403242019 -0.1809979464457448 0.8978008000592789 -0.4014890618626391
-0.4026579818811140 0.0685167581929278 0.8257263787680853 -0.1779731078731807 0.9483993100858004 -0.2624201240429915
-0.1333877969589176 0.5097143521044514 1.3038016080775499 0.0022710439750469 0.2906987759137440 0.9568119272048787
-0.2474804680191319 0.4069842301013186 1.3213863539872781 -0.3199976572741934 0.4092654682068964 0.8544608100272462
-0.2744976900074009 0.3067581116934818 1.3457942497257411 -0.1225157455677259 0.1960368485357550 0.9729128666556701
-0.1580866998665624 0.3902266140450201 1.3317431316661097 0.1137265556917227 0.1555929006274953 0.9812528317435929
-0.3679537503572815 0.3097881729733779 1.3119048216266518 -0.5177445217155581 0.5001368333718590 0.6941208526894270
-0.4895667813694743 0.2132210673324967 1.2786623698760937 -0.6384514709941943 0.5328866887161576 0.5553480855954025
-0.5049507655877530 0.1389607207217234 1.3062815513567612 -0.5040091486553842 0.2616685357331703 0.8231065274184949
-0.3914345798001609 0.2251445088821376 1.3361588905203112 -0.3342640267804151 0.2442418442008522 0.9102820892129585
-0.3974833468073841 0.1268446834864272 1.3508533758712002 -0.2186424612376671 0.0853416133877102 0.9720659870442530
-0.2883540533704766 0.1864889895603549 1.3600493166222472 -0.0272812189641454 0.0622534250269255 0.9976874491363752
-0.4952627120181852 0.0607559031044697 1.3258871778059540 -0.3808359427545043 0.0857822341348563 0.9206548718239211
-0.4764211326371843 -0.0000000000000000 1.3345545177285607 -0.2812514621317320 -0.0324462430845881 0.9590854270389363
-0.4043309504108761 0.0193036950992739 1.3515060522905054 -0.1505690004152584 -0.0496823621586523 0.9873503122014428
-0.3000828269818462 0.0522958373115993 1.3598433973509323 0.0268714697141449 -0.0654363084461215 0.9974948689854729
-0.1724512767963162 0.2513333058912067 1.3480319189846868 0.1716118371516993 0.0478257979951315 0.9840030845457485
-0.1827322518720350 0.0999157150891905 1.3486889325124389 0.2119507106991304 -0.0660541214363892 0.9750455113867251
-0.9388277857168186 -0.2267660649773126 0.9473304488953509 -0.8412194221920759 0.1755654197053270 0.5113967805242053
-0.8366461264922144 -0.1054498426852816 1.0539523956653336 -0.8080602822361853 0.3345993082347443 0.4848524344594003
-0.8814040487061990 -0.2993763814158090 1.0306409843654571 -0.7475755474667699 -0.0628835837572034 0.6611932060476802
-0.8035103244887833 -0.1785964359784380 1.1179555562169436 -0.7261298780903098 0.0406973101010455 0.6863520445770458
-0.7118942975292256 -0.0645083430147591 1.1960756555685659 -0.6884308359413001 0.1410462468984720 0.7114555083496212
-0.7237542277913035 0.0060740145758986 1.1490952434256634 -0.7664144495739472 0.4442237289287961 0.4639764758485702
-0.7965773221114644 -0.3706903981326687 1.0971713331321260 -0.6122036530455276 -0.2180816994450523 0.7600309596094551
-0.7337299955237724 -0.2496593639789345 1.1738226624415298 -0.5858872576690899 -0.1441202762128481 0.7974744304899849
-0.6888681388075993 -0.4377612501201458 1.1460738348457489 -0.4541803995290639 -0.3261651800597583 0.8290575613310607
-0.6357679461449484 -0.3131367824216872 1.2169110625671997 -0.4199329280237517 -0.2643620147370952 0.8681987451762081
-0.5790347993290660 -0.1912565580333226 1.2739609467559554 -0.3784755285408444 -0.1891518194285115 0.9060782877337985
-0.6612304864870180 -0.1335842270005904 1.2390369413556321 -0.5466913829651522 -0.0604231456072285 0.8351512289798638
-0.5817263864676110 -0.0274949270650742 1.2894518481905253 -0.4851776622543628 0.0254558799293555 0.8740449840977372
-0.6119930923778922 0.0421063073221329 1.2593042318586150 -0.6206150827635105 0.2227701643137113 0.7518047438917123
-0.5216067000288868 -0.0800595982037436 1.3139568382471731 -0.3318854764670210 -0.1042386822360722 0.9375427070997596
-0.6080704546003333 0.1121895935493519 1.2242829170019094 -0.7163225490879793 0.5103041463659367 0.4758904116178767
-0.2228106611194523 -0.4042645094191698 1.2386300218508921 0.1749356296271586 -0.3534752977102847 0.9189410968041288
-0.2550504639457843 -0.5804152484196730 1.1658976701616000 0.1032191183151205 -0.4451446181764308 0.8894897877563344
-0.2066226404557597 -0.2283877941228806 1.2940006156872308 0.2134190149502180 -0.2678787923811586 0.9395175765519721
-0.3445659295714993 -0.2422497686787227 1.3059259015891536 0.0066015562743915 -0.2821520773110180 0.9593469782741973
-0.3757725053058091 -0.3963006286209187 1.2525041507996797 -0.0416682546099820 -0.3643587588046648 0.9303259920264949
-0.4167854155457388 -0.5462398229436649 1.1832109858617585 -0.0992802941758511 -0.4390219327606467 0.8929743365536675
-0.1938321733885986 -0.0601288089944434 1.3307815514202841 0.2268162858238425 -0.1765065406360859 0.9578099047294086
-0.3189122511521813 -0.0915602818815472 1.3419147303698145 0.0350614746281778 -0.1850956526133761 0.9820948489736243
-0.4314772301586366 -0.0993497564213530 1.3338605765991796 -0.1531742694122069 -0.1675886706045860 0.9738848395344412
-0.4712301716909914 -0.2285952968824878 1.2977570137648957 -0.1909136493334342 -0.2597924211185509 0.9466043927784996
-0.5149941878730030 -0.3635228994405587 1.2441941995018697 -0.2364957818450470 -0.3355427053248328 0.9118557112135627
-0.5615633894123481 -0.4973816676733280 1.1754708458657910 -0.2815897788210658 -0.3990814045109754 0.8726059987400101
-0.3209273767265937 -0.7398589722683745 1.0802152216487897 -0.0044213068355670 -0.5308423514906738 0.8474590550048525
-0.1710794918272637 -0.8007456970545686 1.0292343741777563 0.1470869205986515 -0.5279274774267126 0.8364556272550707
-0.4711609484768728 -0.6839255621719899 1.0998400553136212 -0.1650268241080950 -0.5102206991793786 0.8440621928825517
-0.5341420021400028 -0.8025420982943807 1.0041793023353194 -0.2399403279796440 -0.5864411947854518 0.7736377473130642
-0.4008400067450713 -0.8708899339253398 0.9814279619669197 -0.1205476150058332 -0.6218744260800171 0.7737832194510649
-0.2675348693969650 -0.9409155455015270 0.9353552537129198 -0.0132250471444148 -0.6433452124379430 0.7654619753855877
-0.6107000435927480 -0.6231983196966054 1.0943449953516131 -0.3265250126980487 -0.4602326621940883 0.8255709010934684
-0.7365172303098315 -0.5584539106783087 1.0652291810615362 -0.4851237000900658 -0.3857714201036136 0.7847518123853969
-0.7759442717017874 -0.6682736246770967 0.9786077235654579 -0.5156460467057675 -0.4537822223657899 0.7267673968894576
-0.6599323620097395 -0.7341104854816473 1.0040374449765792 -0.3731866193315711 -0.5286477251471640 0.7624062761078253
-0.7078232392626133 -0.8229354494460053 0.9080207039810829 -0.4230720486840139 -0.6042529419454971 0.6751951005246729
-0.6005118075646569 -0.8958613588911629 0.8978840643919029 -0.3210331143571463 -0.6683369904381207 0.6710166962887487
-0.8043432186208495 -0.7597537116660894 0.8921295834965177 -0.5432140893582459 -0.5280094133361189 0.6527821325305551
-0.8192444952421905 -0.8192444952421905 0.8248000508639733 -0.5646415806416094 -0.5950428117613810 0.5719300110867191
-0.7612648192235434 -0.8804466859434625 0.8096249619690976 -0.4890882833725655 -0.6701789379496255 0.5582587591756972
-0.6715283178801035 -0.9586799324465572 0.7820849614465892 -0.4100693126357631 -0.7383306696320084 0.5354539953303017
-0.4820918286768907 -0.9703306565581358 0.8693737519810184 -0.2331897928305296 -0.7135505682940035 0.6606573294885627
-1.0142804885315462 -0.3615266591022960 0.8463929877613204 -0.8490076543020292 -0.0093771372301911 0.5282973331694305
-0.9396890526416041 -0.4254310845477521 0.9400816784571221 -0.7588796488816136 -0.1690910625809584 0.6288957712280797
-0.9749748147945193 -0.5512962279336269 0.8489008116288048 -0.7625339279957684 -0.2857530664304896 0.5804198425975085
-0.8960828549057798 -0.7130701607555344 0.8401202200142297 -0.6613330650853648 -0.4668972469466765 0.5870651904332352
-0.8812422930350530 -0.6077897993704630 0.9259669657592138 -0.6515331638678821 -0.3721733472419693 0.6610533533558514
-0.8828917092671391 -0.8082993495019800 0.7650354550143376 -0.6418316445021547 -0.5793659338275078 0.5023815828987361
-0.8467805007931626 -0.4919901346853361 1.0132538754553888 -0.6331781765273691 -0.2905385145559495 0.7174069753836368
-0.8314251468439835 -0.8993256308108367 0.7080286150348813 -0.5759092830696445 -0.6911316356168743 0.4366526765333658
-0.0406912464479375 -0.8821893825127191 0.9421261503885711 0.2853137789280742 -0.5313689220078317 0.7976484916791462
0.0710182017597929 -0.7205782003724028 0.9795003661789569 0.4862787847848673 -0.3737783049508563 0.7898244882353403
-0.1419792312104819 -1.0135046479325076 0.8659258063111525 0.0974497525106652 -0.6622768194711792 0.7428949859345862
-0.0276606445520068 -1.0815995209411393 0.7774982805683236 0.2199293161821568 -0.6848878324499522 0.6946652091804044
0.0724000278506815 -0.9640039067811709 0.8342395720631163 0.4025129486142660 -0.5445423204800222 0.7358376093976728
0.1764435628987565 -0.8182032665422795 0.8580127291775124 0.5620164059647720 -0.3912160406173987 0.7287575515835746
0.1715500367477331 -1.0325714109575932 0.7139194150755275 0.5088183098785942 -0.5728382710165458 0.6426198275738659
0.2705948593716021 -0.8969692282339233 0.7296272214379527 0.6388624275840706 -0.4228739828804139 0.6426759628492756
-0.5344982213928282 -1.0948079385136364 -0.0002457951148978 -0.2859840992913500 -0.8462526315224501 -0.4495214995902238
-0.3550527397700372 -1.1466860539701809 -0.0019663609191827 -0.2122223857573529 -0.8515582712787241 -0.4793851996049192
-0.3423977311439225 -1.2203630261509646 0.1630826936987186 -0.2424457929525544 -0.9305608201327117 -0.2743658096657492
-0.1844411212638145 -1.1781969371387011 -0.0066364681022417 -0.1258209859255632 -0.8608850454166884 -0.4929969757296951
-0.1780370770296263 -1.2486281344847501 0.1482755777710111 -0.1266260357342915 -0.9422647969902702 -0.3100046764600541
-0.0217395517479219 -1.1865424123065496 -0.0157308873534619 -0.0117034694818916 -0.8714908159645987 -0.4902721555334797
-0.0196119263470412 -1.2536800504026679 0.1355242868016317 0.0229619161579656 -0.9495779953568781 -0.3126889526995912
0.5333333373069763 -0.9562848107736667 -0.1510165097205385 0.6974419745855341 -0.6974683900387281 -0.1646588503027270
0.5149220639293566 -0.9949258801698643 0.0807394667575251 0.8031058869346176 -0.5926372385246814 0.0616606672425867
0.4033320861873274 -1.1074662910739799 0.0922992625517615 0.5987699440232701 -0.7982669474637661 -0.0651493263299847
0.4090899614775114 -1.0603337183176453 -0.0905004738421011 0.4167733112020575 -0.8457971796179629 -0.3330572593713765
0.2732856611994224 -1.1844319766986489 0.1098042707584024 0.3866290174531263 -0.9024976678545434 -0.1897787195139126
0.2767385926275172 -1.1265427219014870 -0.0547022880560283 0.2526608779208414 -0.8724021154371403 -0.4184220712977176
0.1314360488744485 -1.2326070293104099 0.1236764298070909 0.1985361519259507 -0.9410679175610401 -0.2738148478730896
0.1325314713594007 -1.1689192731863469 -0.0309257072669921 0.1183895050104094 -0.8760559329776534 -0.4674504544847973
0.1947250636187138 -0.5419450909016543 0.9574483080177852 0.6321044696852973 -0.2360897449107489 0.7380417141001222
0.2810214702140142 -0.6491197792028038 0.8423944523832072 0.6731568256998525 -0.2579620253793279 0.6930479647729249
0.3804799229715460 -0.4667630018380733 0.7928439486034923 0.7462368311529379 -0.1597847873331334 0.6462193231154010
0.3127773945356692 -0.3531323906494380 0.8932988193812449 0.7239076803012039 -0.1417492206604674 0.6751776276233389
0.3641055917336795 -0.7355725304444953 0.7182166740965197 0.7278155758568197 -0.2934037112439497 0.6198376801780309
0.5126342841301132 -0.6265456257903519 0.5602696342906899 0.8397004144977600 -0.2318704519347067 0.4910593725934623
0.4480235363983143 -0.5609491600801799 0.6827257374662314 0.7858900129306314 -0.1939122902340848 0.5871753667108865
0.5197498960715828 -0.3884658564535468 0.6268219081834758 0.8306848719532584 -0.1143688076601948 0.5448691763555580
0.4698900607735049 -0.2825363192824373 0.7164790607678942 0.8032730920720854 -0.0840039471544280 0.5896572533391131
0.5679644110947860 -0.4580177815347804 0.5281674508100594 0.8721769414997279 -0.1505149422207765 0.4654595953296661
0.6009414948276547 -0.3307063588809406 0.4983692619174058 0.8931140906098252 -0.0963548130127218 0.4393893161690079
0.5821637782944696 -0.2374806678039595 0.5485635254280401 0.8721496872094778 -0.0579741230733778 0.4857920585541542
0.5494282253769963 -0.1083310493093354 0.6151696693792879 0.8524657847473546 -0.0285193827696217 0.5220045312461539
0.4168455507842413 -0.1603240832474022 0.8017357195153307 0.7892283668540262 -0.0692214555337139 0.6101860167577758
0.5070833045978339 0.0289712970753327 0.6870225696502615 0.8400340207526599 -0.0125561469524165 0.5423884098612628
0.6209234492266311 -0.8173988842336753 -0.0904284453749779 0.9253987994280127 -0.3789680547518655 -0.0045028318622623
0.5990295210700985 -0.8409636002575696 0.0924196420254092 0.9131231788688391 -0.3882576602257903 0.1243464896507372
0.6767015332628341 -0.6368816244523803 -0.0541260603190426 0.9726662986645374 -0.2315517213930348 0.0174376535735586
0.6590125346003939 -0.6528379733989588 0.1105661235852069 0.9583080180657186 -0.2487248490038792 0.1406474031006323
0.7151899016212175 -0.4263152112140398 -0.0289809386546655 0.9900935993652746 -0.1386246656553938 0.0223129237852289
0.6998006393066210 -0.4403929198505613 0.1261218057605104 0.9781907521739996 -0.1499231096478939 0.1437564383071949
0.7381489703926339 -0.1961238568404016 -0.0111210654575767 0.9973655529129448 -0.0667811068088335 0.0283237998164622
0.7235136042938152 -0.2116985554397797 0.1373076274955932 0.9856477522978229 -0.0716424214642230 0.1528589933140745
0.5723888199602370 -0.6571615408808783 0.4228283561214409 0.8926670264754896 -0.2536872784345532 0.3725430775143688
0.5844761812063796 0.2073103540295768 0.5511948803617510 0.8842052042769667 0.0321010536683747 0.4659942908265162
0.6197045747770413 0.0450672742851367 0.4900525644034354 0.8985556743051010 0.0097275595172239 0.4387517233697711
0.7466326511153047 0.0453505801073075 0.0024188348761004 0.9991166961879608 -0.0103293016014812 0.0407324554486905
0.7274536328747356 0.8504746266803107 -0.1125579396923781 0.9654496591554752 0.1347306720936952 0.2230573953801081
0.7407973132068438 0.5045529126115627 -0.1353882296232786 0.9997335708271271 0.0189457873839972 0.0131850104907817
0.7751579572466334 0.7023589669402487 -0.3082966893526792 0.9411854571145812 -0.1625297719052597 0.2962330308396432
0.7369737958114443 0.8809366906958677 -0.1746971290001759 0.9478479498607894 0.2180765343686321 0.2324368497086153
0.7295468548495673 0.5559082011672756 0.0260461822060483 0.9915627355172172 0.0684831168909942 0.1100609114740906
0.7412795482811206 0.4745518406142752 -0.1675926878871560 0.9999710997720865 0.0051544155531286 -0.0055885258261457
0.7432366036171543 0.2957509934890898 0.0140057446829607 0.9973941736262764 0.0297535046456311 0.0657235983316463
0.7434573679994778 0.2514569127668381 -0.1558354451157066 0.9979484574156506 0.0057581567856957 -0.0637629984564302
0.7423280097368298 0.0207557356801476 -0.1545901810611036 0.9962223373799329 -0.0193484566411241 -0.0846563153631764
0.1489864292737373 1.1311689125766893 0.0425811149009433 -0.8026736876512502 -0.2088982699474420 -0.5586380437862327
0.1745704832743762 1.1868600581864575 0.0110663483912651 -0.6850569847719981 0.2158021946291477 -0.6957918800965859
0.2803119113457521 1.1094479189507336 -0.1027903164745418 -0.6502058786814342 0.1111763577884069 -0.7515797581075532
0.2610457930671720 1.0521990089751236 -0.0759854875824402 -0.7590960507975022 -0.2478603055994516 -0.6019455578138129
0.1592680152081569 1.0594194282528775 0.0845060715491673 -0.7748954173073971 -0.5188895516267572 -0.3609580660528005
0.2728796672211063 0.9811367676811590 -0.0366514883770051 -0.7543064618322036 -0.5279838670990843 -0.3901984081480585
0.0873759487651270 1.2448739271869398 0.1314450129298367 -0.7277881301812633 0.3597513117161579 -0.5838693614891641
0.1489064709933744 1.2770020646649050 0.1052584712274531 -0.3468459896497635 0.7897318617755410 -0.5059856183335787
0.2317455234597499 1.2203748307100502 -0.0129762715004647 -0.3809080986674412 0.6340716491255086 -0.6729503430007393
0.2375836626707925 1.2813361572921813 0.0866227088173388 0.0602506281524805 0.9487015846647227 -0.3103790667262784
0.3165349115168282 1.2254732568623148 -0.0327734386546651 0.0045169879657327 0.8689097910303913 -0.4949498680384096
0.6514838293099184 1.0271211761598031 -0.1066034683089549 0.7864176113214875 0.6097859520210589 0.0985313824178706
0.5826272275315757 1.0768533853228268 0.0575832202906695 0.7744901630919561 0.6055626756322199 0.1829175583560586
0.5400020338851227 1.1313538955601270 -0.0740019343741599 0.5691437610604938 0.8175324135589745 -0.0878415165303590
0.4658469179128039 1.1872730780118372 0.0657449914473419 0.5812894646947862 0.8126469812862193 0.0413212057089828
0.4233682430486357 1.1966367108249556 -0.0517708962594837 0.3206600036633930 0.9033400261083651 -0.2848753398964732
0.3468556889779313 1.2528084700397151 0.0743460680611705 0.3593613865313285 0.9254566294739563 -0.1199559120384877
0.3173415525547816 0.9022467191591825 0.0174571543837339 -0.7029924422271736 -0.6725271915947293 -0.2313196981175194
0.4418935060218336 0.8117939053510893 -0.0985233121921410 -0.7062300815440414 -0.6686228278932422 -0.2327715316406634
0.4993148032610266 0.7371343921399622 -0.0316052640037060 -0.6781329424046205 -0.7188923662224486 -0.1527399037996967
0.3872474623114986 0.8173696337608344 0.0806413108523509 -0.6698178738600337 -0.7255032980806756 -0.1580790319165907
0.5664422944367409 0.6626407480812685 0.0364537039284543 -0.6678162924577414 -0.7339896581989322 -0.1236146479387090
0.6622619748553893 0.5883254103028024 -0.0536153726469969 -0.6826569714673005 -0.7225689817536097 -0.1089657098111368
0.6929902769833236 0.5500204266945096 0.0087660541302419 -0.6837372025015711 -0.7206192229170753 -0.1149407389819472
0.7326782558378548 0.4908231540110181 0.1107980883374957 -0.7201209830984798 -0.6759906753464041 -0.1564045285341552
0.7670246867838427 0.4784785462532908 -0.0085518439375487 -0.7270008079583362 -0.6769496039527165 -0.1149306701285025
0.8102142370026882 0.4052974854512646 0.0861542393124119 -0.8125219415573058 -0.5488152371704639 -0.1964940964443297
0.8494313861423264 0.3828423707240239 -0.0351299783476761 -0.8178842124779376 -0.5612706311224709 -0.1266518599102553
0.8665813426510397 0.2916212181179620 0.0914752221631762 -0.9437051362820355 -0.2086599778740668 -0.2566741696947686
0.9024754246556660 0.2866634136554542 -0.0694647919582503 -0.9560623567373504 -0.2525925471239380 -0.1488011262298256
0.8651132261658910 0.2047251398707671 0.0536039836305554 -0.8117441276747522 0.5237023700159257 -0.2584710792821085
0.9041291281875546 0.2039459215844636 -0.1117228421954497 -0.8754733223014493 0.4633109662982232 -0.1374387516178367
0.8061694506197082 0.2137778763335673 0.2216536967438826 -0.7466402915257750 0.5722096234208839 -0.3392704259655355
0.7974224922409880 0.1370626169785155 -0.0060549862674166 -0.4189939781854670 0.8941616746729656 -0.1578573589996803
0.7311537071132637 0.1414475304243979 0.1518922517809176 -0.3600906847824789 0.9086115627545049 -0.2115649469115852
0.8377235972422534 0.1363702472272459 -0.1667614570191061 -0.4716106528770526 0.8793110198336186 -0.0662987367303615
0.6778025422826193 0.0886494609557101 -0.0818700330152195 -0.2222096655079318 0.9706575507631359 -0.0919063855309488
0.6011658425735780 0.0888504801184356 0.0546119639329768 -0.1869339065232999 0.9731109771442403 -0.1345761522459305
0.5287361807060252 0.0573247413844219 -0.1677812942794499 -0.1278388701212139 0.9908962725711803 -0.0422113763181515
0.4378307729606132 0.0532383200638493 -0.0589789210449689 -0.1083331162533581 0.9911605266808247 -0.0765816314309551
0.4964578713327445 0.0897256760624711 0.1841534110683888 -0.1596782662781081 0.9751893788224331 -0.1533249057078946
0.3194989674228744 0.0505773245078040 0.0485182142421578 -0.0965263601773403 0.9908131367158447 -0.0947205885867651
0.2613972165055928 0.0312015671584467 -0.1856522398967382 -0.0744967628249089 0.9969204393650167 -0.0244922417281717
0.1254755733703347 0.0248672999940391 -0.0951284995068732 -0.0690827075901230 0.9965611537601140 -0.0457541946528192
0.1817760814402703 0.0475039399988042 0.1509805087054096 -0.0943257017118125 0.9906868286354663 -0.0981950587594737
-0.0194444459180038 0.0194444459180038 0.0000000000000000 -0.0739216014609178 0.9957867943418273 -0.0542610085778056
0.5161321267099284 0.1463389567258844 0.4439038621695636 -0.2484859542864007 0.9380858515205805 -0.2413496751588534
0.3489901419417898 0.1308439526766099 0.5420912140120970 -0.1999129347798635 0.9556472637234925 -0.2162709546968886
0.3644102922162551 0.0877590779447475 0.2995993686647014 -0.1431869807209372 0.9775903393856048 -0.1543198525529362
0.2062568055627918 0.0798988852927092 0.3938081509184993 -0.1332383496348914 0.9805665253384171 -0.1440028873749198
0.0301479713331467 0.0669473259839086 0.4668052807522396 -0.1263323716574737 0.9831816485804030 -0.1318862303886148
0.1558717327488787 0.1092699091762760 0.6096182886815555 -0.1639703192868470 0.9660241929394973 -0.1997773586985331
0.0316675400103849 0.0420056523272159 0.2437155018520176 -0.0976418676252393 0.9907762710228809 -0.0939598130300931
-0.1636115969078618 0.0133221544584026 0.0951369965145693 -0.0842031810566516 0.9948472012518820 -0.0564700846576149
-0.2984298287942703 0.0062584924495472 0.1857202159583069 -0.0967496340114525 0.9937259692237861 -0.0561088799469112
-0.1230318985945321 0.0336276113035507 0.3234282854115052 -0.1039875567495776 0.9907458393558993 -0.0872311288487537
-0.2764253432269682 0.0220735998429785 0.3857763876840384 -0.1136683037003215 0.9903085301546107 -0.0798030816253732
-0.1558250638209181 0.0500718401862904 0.5193861102372114 -0.1256724815638008 0.9845159348964433 -0.1222080247470615
-0.4148242367509992 -0.0013767410918103 0.2663298556441079 -0.1100073383807106 0.9924619437996388 -0.0540155126962095
-0.4941488164158533 -0.0075227892181429 0.3231284452299771 -0.1254544261694663 0.9908403824467675 -0.0499652225776419
-0.4341279318502731 0.0056635518196174 0.4190756965111021 -0.1244730094711206 0.9897550419286267 -0.0699387366919411
-0.3507256661058696 0.0280466888792610 0.5482580993141586 -0.1328987688336831 0.9851001642946936 -0.1091585248574705
-0.0499788677775965 0.0860187854626737 0.6560247139406835 -0.1458717328367923 0.9710297423267165 -0.1892687958330748
-0.2635273119970523 0.0596076041446861 0.6832461535776471 -0.1441679236289924 0.9737280907808809 -0.1762646164739979
-1.0806363036690474 -0.1619758288517527 -0.0515380432454898 -0.4814950203350321 0.8747986168262883 -0.0537580262972859
-1.1075774848494775 -0.1715575279141665 0.1180457107695583 -0.5257311133352895 0.8506508076004142 -0.0000000004854750
-0.9670534238750771 -0.1068386312183058 0.1694004455996760 -0.3295762719508982 0.9440942586390404 -0.0080939342564864
-0.9356082009241756 -0.1005909763084231 0.0071688289232009 -0.2919142392397716 0.9558975196545796 -0.0323420600346979
-0.8701420424266864 -0.0871484951203026 -0.1515621595353542 -0.2531020432812933 0.9671804980898603 -0.0223883854148541
-0.7631822315180777 -0.0568751563271333 0.0824267954366757 -0.1843897842451025 0.9822773340894452 -0.0336399524401715
-0.6866821837616366 -0.0480312600401779 -0.0544464789536008 -0.1549794966297456 0.9876226960241266 -0.0241405451973701
-0.5822005514283249 -0.0256569023991732 0.1680716451742363 -0.1279807477859640 0.9909168186098881 -0.0412890638329751
-0.4908294096182937 -0.0190775384379283 0.0590665830809954 -0.1095538757951052 0.9933066345689902 -0.0366043442708270
-0.5768537272800429 -0.0344482119419200 -0.1841327254459668 -0.1241741554902177 0.9922570000363508 -0.0026124676366788
-0.3702266288370151 -0.0105051769575050 -0.0485072564876545 -0.0910677091632014 0.9954497146656902 -0.0280452833781822
-0.2282054831083780 -0.0010745383306964 -0.1509805087054096 -0.0742067883323475 0.9971107020947982 -0.0162357732620465
-0.8766788445674418 -0.0808961918535605 0.6729538197079412 -0.3988969079672154 0.9169643823285437 0.0075880402626288
-0.6883074743882692 -0.0176099217634691 0.6880343364638690 -0.2488749674663892 0.9643802089116121 -0.0896217787605171
-0.4797847179457971 0.0269771714494346 0.6925144380510643 -0.1716779517643853 0.9741351878734726 -0.1469262285117932
-0.5529649520707155 -0.0014174889995196 0.5512082656010365 -0.1641908026764987 0.9832373445685988 -0.0792824353948437
-1.2688290289312900 -0.4342351865568034 -0.0955141709591036 -0.9808392908679398 0.0466094753725736 -0.1891608899724532
-1.2650364760543389 -0.5251437475268764 -0.0613736826510322 -0.9515070196365718 -0.2547882990849844 -0.1723871057582586
-1.2791537607476009 -0.5051051279258443 0.0211612060705170 -0.9819286638815362 -0.1837039067017321 -0.0454859726766652
-1.2832819949983971 -0.4387689699378553 0.0306162551114923 -0.9978499302315850 0.0594048263233395 -0.0276872415801000
-1.2450307025988501 -0.3376549672620969 -0.1020212071749553 -0.9064991086608365 0.3933845689253647 -0.1533230149994249
-1.2634305835427309 -0.3482623287337785 0.0491717901159335 -0.9295641029045796 0.3685406146107497 -0.0094018069292615
-1.1838321823211846 -0.2435736868238492 -0.0876940777817380 -0.7212791293061493 0.6853173883992262 -0.1004813156015942
-1.2064720853322646 -0.2550519282378634 0.0779089020129258 -0.7592467186310626 0.6508027003747040 -0.0005152018606629
-1.1472035039802371 -0.7406505821055712 0.0034391468791311 -0.7259351098146577 -0.6700300018870514 -0.1551709151536422
-1.2434121257136672 -0.6067323484379308 0.0110949373502460 -0.8898494186138409 -0.4477645769858078 -0.0876064825759477
-1.1998414388960490 -0.6438773870858819 -0.0961972956339671 -0.7944434146282463 -0.5544822929416783 -0.2478084901046597
0.7174270480185668 0.7594132622184606 -0.0167405320911990 0.9823994082643103 0.1026877704533850 0.1560340489804897
0.7470299477398554 0.6481194586729556 -0.2104694380728124 0.9891121570658030 -0.0600936094985153 0.1343350246290005
0.6114413941424214 1.0373595596799097 0.0550118273544768 0.8201582821313664 0.5310812567139037 0.2128217353056464
0.7123009566673753 0.9355126666220216 -0.1443887065823825 0.9048690793036552 0.3788224626063420 0.1941790182924561
0.6708555808953229 0.9786396971977537 -0.0477635221858324 0.8710984506127381 0.4474105452306835 0.2025124523491574
-0.9406122257430175 -0.1235232616344892 0.7812020298268052 -0.6102577324173153 0.7840873614686202 0.1131039769860180
-0.9205900600769227 -0.1188237342665173 0.8583146807139547 -0.6858783150629308 0.7156589786691481 0.1319210490280712
0.4887167798334842 0.6117937529465497 0.6418140795096121 -0.7320870943270222 -0.6584738619256585 -0.1745298240431319
0.4793897254851596 0.7612175858220809 -0.0539389624950852 -0.6851608426680179 -0.7078870225024850 -0.1716117217646218
0.3661755289934709 0.8410863429783768 0.0629326245103619 -0.6765524493033863 -0.7159882376317659 -0.1721558216109661
0.4144056693771787 0.6655810102839589 0.7481116626773311 -0.7224385910311363 -0.6688916198348406 -0.1751184830441087
0.4436908480809760 0.6426377904014555 0.7138722831634241 -0.7286918680862540 -0.6621800532335540 -0.1747161654929877
0.5074970940851351 0.6014236661437514 0.6023053878152489 -0.7300617586006125 -0.6606985462140721 -0.1746060126673552
0.8273340201843535 0.3864468900851047 0.0688386784457002 -0.8155277650710931 -0.5500354212313877 -0.1799319309876869
0.7124983076471826 0.7310624182870297 0.0355050434031250 0.9806866019121920 0.1155965965842629 0.1577695017677780
0.8942122436668321 0.2869410195811138 -0.0223940663400099 -0.9542126188403294 -0.2363152643284472 -0.1833940399556551
0.8663756252313090 0.3362947389837966 0.0239943279680101 -0.8824104660910703 -0.4334602069011651 -0.1829317314359082
-0.7006495389659725 0.0533563674785025 1.1177391428664898 -0.7032194752844687 0.6977459046170476 0.1365028284350711
0.4452961624552518 0.7856491988067574 -0.0192109541054428 -0.6817166139658573 -0.7111596757105938 -0.1717974792775769
0.9017545088885639 0.2668651605087159 -0.0426033463895276 -0.9764785310885730 -0.1174236269528453 -0.1808352016515088
-0.5827033896318370 0.1535262553643902 1.2010712081419743 -0.6848471266902446 0.7162614361901003 0.1339924180355399
-0.0000286184907866 0.7419804940294682 1.2007788531629271 0.3535970211787151 0.9180615553172289 0.1792543646945590
0.0247007837352276 0.8853991743149681 1.0930290810759891 -0.9998610043394131 -0.0137451321626810 -0.0094362780380159
-0.9272508960225713 -0.1207429657830109 0.8341295557876213 -0.6606427964042385 0.7401193774881533 0.1255961887388956
0.1550571358770384 0.8919411995119459 0.8366580596343374 -0.6469492829233174 -0.7403226974678483 -0.1826990118718055
0.0000330902002681 0.7421195009738739 1.2005811471058612 0.2881227019780013 0.9398327426292433 0.1835748470975540
-0.4590072955565367 0.2568889563882011 1.2573089642324824 -0.6544401930494528 0.7446140313437175 0.1313696237623150
0.2297775484853453 0.8261664993607600 0.8373805368613605 -0.6574774330242961 -0.7313030673596030 -0.1814366245668670
-0.3638976637842943 0.3337957502292961 1.2841515778669665 -0.6404719923844214 0.7567774781048061 0.1307037704293919
-0.6648551308290053 0.0836557158662698 1.1463953450439377 -0.6991838527677766 0.7019133044754462 0.1358663057169346
-0.5421080642546056 0.1878440075599412 1.2227375984996112 -0.6757742964111445 0.7250029231964191 0.1330408270669942
-0.2113797468167815 0.4637644460671165 1.2987442344349835 -0.6711094822325395 0.7299096402075079 0.1297843595727892
0.2079109190962419 0.8454668547896736 0.8378800627063515 -0.6494182187823107 -0.7382317624698059 -0.1824002247650341
-0.3325236489612866 0.3593021774009244 1.2902752351731928 -0.6412610584400288 0.7561075513148205 0.1307119955209926
-0.2373115180301293 0.4401809966098338 1.2991966682626510 -0.6609339785868906 0.7390479605234229 0.1302857935289674
0.1335170743391928 0.9111499003550466 0.8353658468132816 -0.6499726530204061 -0.7377804042022503 -0.1822515445772104
-0.0170357009009384 0.7098465792083021 1.2375514762263973 -0.8434366903135032 0.5274437830742951 0.1020666700215087
0.7346182375673798 0.7168771334915192 -0.1123415193428888 0.9890772733892146 0.0238029501444792 0.1454632834407925
0.7323896119049065 -0.2147775247211083 0.0625860013112677 0.9931929097255363 -0.0729246865807866 0.0908285976882646
-0.8244406142519454 -0.0449043134630183 0.9569713459650107 -0.6206140291432908 0.7840499022309068 0.0101969427887035
0.6642293900588742 0.9695179258571817 -0.0023740105732426 0.8804919358268272 0.4170949643449138 0.2253125421765098
0.8875399842852012 0.2021208132486600 -0.0326894586027222 -0.8447158778226028 0.4961357973947803 -0.2007594488382427
0.7006174536595892 0.9213682799004769 -0.0699851436034222 0.9229242870499634 0.3165832960723724 0.2190565612376615
-0.8031935236709690 -0.0451445808035967 1.0550466841497665 -0.7785954841404402 0.5406221113384287 0.3186170190182771
0.3254768004726486 0.7490621346412476 0.7802649523982645 -0.6908479185526427 -0.7060083144350622 -0.1558249446656199
0.5363129297188710 0.5835264445715791 0.5503002606126898 -0.7290714890224347 -0.6604091377940029 -0.1797624393826240
0.8352756115271253 0.3900417147347118 0.0180854618268681 -0.8100061141886650 -0.5660613303756672 -0.1531818045014134
0.3199764697685769 0.7365032692180332 0.8505611397829700 -0.6975767355845894 -0.6856069477620251 -0.2081581397677918
0.4114936309120450 0.6610119132710028 0.7763230881382738 -0.7283017640516176 -0.6583109995648471 -0.1902713019118592
0.3686642619852147 0.8466156113193218 0.0314540643336116 -0.6834546594280774 -0.7059535399848272 -0.1857937778531391
-0.0278581347148471 0.6654589262581913 1.2402895692291751 0.2908263488772497 0.3032704119724724 0.9074398558696742
0.0290052130345363 0.8284158872297229 1.1385527223872711 0.3230904477964991 0.5306393418631465 0.7836035039544580
0.8832189859578395 0.2834977145370410 0.0326644621082312 -0.9555856327651558 -0.1909095993269241 -0.2245208750598708
0.7154324373577856 0.7341668597513783 0.0143240289169244 0.9828799759463651 0.1096487019318917 0.1480679406499730
-0.6928516712840996 0.0509915168719576 1.1498591705055363 -0.7469936183928580 0.5875751017780518 0.3110563194195822
0.6753809331053774 0.9857213097195220 -0.0857537177834834 0.8574246183848228 0.4837816318324918 0.1754376142368914
0.4852487911610052 0.6074856167885359 0.6718770170988548 -0.7399163531453381 -0.6473871494737551 -0.1827940618410487
-0.9347278306533452 -0.1220151967080987 0.8025735061016589 -0.6277428837079007 0.7694292877702613 0.1179722131496970
0.6161239900653148 1.0459401138662157 0.0120800658681378 0.8037060911789818 0.5665180413762397 0.1819720522416320
0.1534511600320924 0.8842494732725334 0.8706737043448678 -0.6428045394072307 -0.7356911372016511 -0.2134499350208367
0.7210403107979720 0.7631394910763567 -0.0412685965866540 0.9830165913820074 0.0852447308024112 0.1625168204775250
0.7047048584301191 0.7986563592114164 0.0285551132383820 0.9727336015369140 0.1465775584448762 0.1797341364386938
-0.5776779182734778 0.1510026760530579 1.2235396778269765 -0.7092392154515170 0.6240824140869318 0.3278732616319056
0.5107155341546862 0.6052531374671198 0.5739276722548734 -0.7228163504996663 -0.6698207505632433 -0.1699314142977603
-0.0884854258450140 0.5775427351511901 1.2671950515375592 -0.4291305951660513 0.1302286116631540 -0.8938050352267647
0.8610586117376092 0.3342059517916997 0.0530930024556767 -0.8858874422570591 -0.4179739797500430 -0.2012490792603945
0.8708517523255773 0.3380107330638577 -0.0029545511551631 -0.8795401525989546 -0.4460510174958826 -0.1656732016866204
0.2280992785342134 0.8207522447942833 0.8631919845952035 -0.6541972118387618 -0.7265869275762374 -0.2099939158588023
0.0348392219406482 0.9245932957272041 1.0283804765811484 -0.6985189559281126 -0.5926365249625322 -0.4010651038041497
0.5057476565704824 0.5993553029885851 0.6173103153690717 -0.7340013833512649 -0.6555168069083422 -0.1775941584037062
0.7330686312655366 0.7153305045119304 -0.1013002906315740 0.9895451074456372 0.0331580982571597 0.1403603250579414
0.8980916813982454 0.2882004672148534 -0.0453406299573314 -0.9533252067074914 -0.2522898935091755 -0.1658941225277362
0.4454036029848138 0.6451403464343243 0.6969266268106892 -0.7248151101344388 -0.6679463902917945 -0.1687918120554520
0.4441749400097272 0.7836525572162205 -0.0062784032848883 -0.6789435195286515 -0.7150678113922836 -0.1664743896240415
0.4462908197306560 0.7873897886059092 -0.0301936438388165 -0.6842239367689869 -0.7075074077655406 -0.1768357212478142
-0.4567107870912389 0.2551624338524465 1.2696577343177542 -0.6610451151725483 0.6826537654492054 0.3114533548134193
0.7362032284762975 0.7183880391227124 -0.1231043840791618 0.9883959102264025 0.0141982134243121 0.1512347029728265
-0.7026076642211614 0.0532615740199799 1.1053622815716029 -0.6765160662583325 0.7329701896034836 0.0712791220974613
-0.5841372521478023 0.1535743108019427 1.1888931983802500 -0.6553001964836183 0.7547579757996137 0.0303652837200822
-0.9164678701859202 -0.1184033929728444 0.8764132020936591 -0.7111843994420908 0.6853765593467611 0.1564471856192636
0.8133299567586649 0.4068434406471053 0.0668030849805092 -0.7918831279170910 -0.5866072354183230 -0.1697441105756432
-0.3306735113554538 0.3572104006213193 1.3002389169783917 -0.6158570076417568 0.6792211890370452 0.3992226477814650
-0.9233388176265972 -0.1191989539273672 0.8458664175687366 -0.6708447104212865 0.7309882078959649 0.1249944575444285
0.4425641640474418 0.6410153818258912 0.7245823145838768 -0.7311796721356654 -0.6582912330104447 -0.1789663085532285
0.8980328581297926 0.2657927421118467 -0.0227443117894583 -0.9753472296205755 -0.1001022410936597 -0.1966655104472952
-0.2095626439056591 0.4613129922749989 1.3059956661925967 -0.5244727179905013 0.6135245812073820 0.5903524001289083
0.9047243323771504 0.2677660932952428 -0.0599356694538394 -0.9771713589313737 -0.1315344307951935 -0.1668377319421382
0.7451203286806667 0.6463663852313368 -0.1964123914100086 0.9915220275215227 -0.0443964139837354 0.1221189066647480
-0.6664989269541080 0.0836478771390877 1.1354031791666499 -0.6748912555593709 0.7346836061682013 0.0690057388713661
-0.4596816027998061 0.2570816007872727 1.2491410950839092 -0.6342796801556724 0.7730203195543891 0.0113522199436101
0.2302586962860741 0.8279716775655869 0.8281071536005380 -0.6587079932888915 -0.7324987604061632 -0.1718992308905309
0.0129804969709013 0.9840604379779816 0.9935805814554041 -0.9676020698019596 0.0583681860799579 0.2456407730176304
-0.5431321034678457 0.1879921588993874 1.2135636523278941 -0.6537750718445445 0.7556442637319861 0.0397479826356663
0.4905626885947763 0.6141134720359300 0.6251208214125220 -0.7278734081384861 -0.6641007906829590 -0.1707935641033744
0.8256971619630989 0.3856782575912340 0.0784738213552191 -0.8167740187892281 -0.5465474136108858 -0.1848408150440404
-0.9324047392305748 -0.1225069139757882 0.8178111724877029 -0.6461498200918118 0.7528552917963911 0.1252969257782890
0.0268552699152886 0.9106570701638518 1.0732294008511378 -0.1876118862641282 0.6507757036532719 0.7357260112752605
0.4156575331132237 0.6676122331951149 0.7349493193724967 -0.7197401215588463 -0.6732837519215704 -0.1693019397906309
0.1331100772839515 0.9085655219597962 0.8469928336423221 -0.6486548787947489 -0.7366924274388973 -0.1911311475661533
0.1554605873280697 0.8944169062549518 0.8249130531915490 -0.6483620868355159 -0.7411102673308072 -0.1743048364537098
-0.6621809283944805 0.0829928408335657 1.1596686930166389 -0.7215933423075261 0.6569160123211302 0.2185506831230646
0.4781316866645088 0.7592031477765558 -0.0403491924904935 -0.6821258184446399 -0.7122361797046080 -0.1656019085971401
-0.0975196806407929 0.5788391648363276 1.2798300025558536 -0.1725980080071903 0.4503652240032424 0.8760029067534303
0.2070648423979503 0.8422609347562047 0.8531916492133340 -0.6479759223132813 -0.7354621090152611 -0.1980471921161135
-0.5401367916313470 0.1868631587289162 1.2335354837794730 -0.6906967182870561 0.6806989653460479 0.2441044078346617
-0.3641414304495387 0.3339969451255818 1.2807788725317415 -0.6344107747664258 0.7711961876015792 0.0527201013755976
-0.3619511319143061 0.3317758850412867 1.2947938050673047 -0.6272012855903525 0.6845822528233880 0.3714373250941053
0.2083243558361056 0.8472210621431998 0.8290980540070775 -0.6503066883878799 -0.7394633404298980 -0.1740551039132307
-0.2369278440699800 0.4400578395481362 1.2925644088333497 -0.6424302661722232 0.7331617045666087 -0.2230633723022927
-0.9216930715611515 -0.1193317030813949 0.8553402386750257 -0.6834734531310213 0.7181094118997696 0.1310836046427041
-0.2371325745064509 0.4398951003757568 1.3010008105998265 -0.6485701265581580 0.7251528501575875 0.2313225774641602
-0.3327185511268121 0.3595034483707141 1.2870245143972785 -0.6364481492293103 0.7702506543810426 0.0405916588495868
-0.2113974067070545 0.4639070948747662 1.2967726510663233 -0.6794366957136262 0.7336476516341643 -0.0112649797791708
-0.0000824292347622 0.7418177262911915 1.2007676033300450 -0.2183552424786786 -0.1949781123412442 -0.9561927231421093
-0.0288651947242155 0.6252791229601561 1.2527988508787153 0.3378225035516694 0.2509569666885110 0.9071364599466741
0.0000813798827628 0.7422462452142974 1.2005027273204187 0.3042435084889945 0.4326199781556702 0.8486906633414171
-0.0281241916478643 0.6309114464414722 1.2509488950602368 0.3365905780415713 0.2559440944075275 0.9062005315114042
0.0064361928661325 0.7572497788710196 1.1904897103435006 -0.3685255912490584 -0.4227145598924427 -0.8279500525088880
-0.0000328330657973 0.7419470735949656 1.2006877233862332 -0.1524245591867910 0.1807317021959924 -0.9716495281623161
3 1 4 5 1
3 1 5 2 1
3 2 5 6 1
3 2 6 7 1
3 3 2 7 1
3 3 7 8 1
3 4 9 10 1
3 4 10 5 1
3 9 11 12 1
3 9 12 10 1
3 10 12 13 1
3 10 13 14 1
3 5 10 14 1
3 5 14 6 1
3 6 14 15 1
3 6 15 16 1
3 14 13 17 1
3 14 17 15 1
3 15 17 18 1
3 15 18 19 1
3 16 15 19 1
3 16 19 20 1
3 8 7 21 1
3 8 21 22 1
3 7 6 16 1
3 7 16 21 1
3 21 16 20 1
3 21 20 23 1
3 22 21 23 1
3 24 25 26 1
3 24 26 27 1
3 25 28 29 1
3 25 29 26 1
3 26 29 30 1
3 26 30 31 1
3 27 26 31 1
3 27 31 32 1
3 28 33 34 1
3 28 34 29 1
3 33 35 36 1
3 33 36 34 1
3 34 36 37 1
3 34 37 38 1
3 29 34 38 1
3 29 38 30 1
3 30 38 39 1
3 30 39 40 1
3 38 37 41 1
3 38 41 39 1
3 39 41 18 1
3 39 18 17 1
3 40 39 17 1
3 40 17 13 1
3 32 31 42 1
3 32 42 43 1
3 31 30 40 1
3 31 40 42 1
3 42 40 13 1
3 42 13 12 1
3 43 42 12 1
3 43 12 11 1
3 44 23 20 1
3 44 20 45 1
3 46 44 45 1
3 46 45 47 1
3 47 45 48 1
3 47 48 49 1
3 45 20 19 1
3 45 19 48 1
3 48 19 18 1
3 48 18 41 1
3 49 48 41 1
3 49 41 37 1
3 50 51 52 1
3 50 52 53 1
3 51 47 49 1
3 51 49 52 1
3 52 49 37 1
3 52 37 36 1
3 53 52 36 1
3 53 36 35 1
3 3 8 56 1
3 3 56 54 1
3 54 56 57 1
3 54 57 58 1
3 8 22 60 1
3 8 60 56 1
3 0 61 62 2
3 61 63 64 2
3 61 64 65 2
3 62 61 65 2
3 62 65 66 2
3 63 67 68 2
3 63 68 64 2
3 64 68 69 2
3 64 69 70 2
3 70 69 73 2
3 70 73 74 2
3 66 65 75 2
3 66 75 76 2
3 65 64 70 2
3 65 70 75 2
3 75 70 74 2
3 75 74 77 2
3 76 75 77 2
3 76 77 78 2
3 79 80 81 2
3 79 81 82 2
3 80 83 84 2
3 80 84 81 2
3 81 84 85 2
3 81 85 86 2
3 82 81 86 2
3 82 86 87 2
3 83 88 89 2
3 83 89 84 2
3 88 78 77 2
3 88 77 89 2
3 89 77 74 2
3 89 74 90 2
3 84 89 90 2
3 84 90 85 2
3 90 74 73 2
3 92 93 94 1
3 95 92 94 1
3 0 62 97 2
3 62 66 99 2
3 62 99 97 2
3 97 99 100 2
3 97 100 101 2
3 66 76 103 2
3 66 103 99 2
3 76 78 104 2
3 76 104 103 2
3 103 104 105 2
3 103 105 106 2
3 99 103 106 2
3 99 106 100 2
3 100 106 107 2
3 100 107 108 2
3 106 105 109 2
3 106 109 107 2
3 107 109 110 2
3 107 110 111 2
3 108 107 111 2
3 108 111 112 2
3 102 101 113 2
3 101 100 108 2
3 101 108 113 2
3 113 108 112 2
3 113 112 115 2
3 114 113 115 2
3 114 115 116 2
3 79 117 118 2
3 79 118 80 2
3 117 119 120 2
3 117 120 118 2
3 118 120 121 2
3 118 121 122 2
3 80 118 122 2
3 80 122 83 2
3 119 123 124 2
3 119 124 120 2
3 123 125 126 2
3 123 126 124 2
3 124 126 127 2
3 124 127 128 2
3 120 124 128 2
3 120 128 121 2
3 121 128 129 2
3 121 129 130 2
3 128 127 131 2
3 128 131 129 2
3 129 131 110 2
3 129 110 109 2
3 130 129 109 2
3 130 109 105 2
3 83 122 132 2
3 83 132 88 2
3 122 121 130 2
3 122 130 132 2
3 132 130 105 2
3 132 105 104 2
3 88 132 104 2
3 88 104 78 2
3 135 138 139 2
3 135 139 140 2
3 136 135 140 2
3 136 140 141 2
3 137 142 143 2
3 137 143 138 2
3 142 116 115 2
3 142 115 143 2
3 143 115 112 2
3 143 112 144 2
3 138 143 144 2
3 138 144 139 2
3 139 144 145 2
3 139 145 146 2
3 144 112 111 2
3 144 111 145 2
3 145 111 110 2
3 145 110 131 2
3 146 145 131 2
3 146 131 127 2
3 141 140 147 2
3 141 147 148 2
3 140 139 146 2
3 140 146 147 2
3 147 146 127 2
3 147 127 126 2
3 148 147 126 2
3 148 126 125 2
3 149 150 151 1
3 149 151 152 1
3 1 149 152 1
3 1 152 4 1
3 153 154 155 1
3 153 155 156 1
3 150 153 156 1
3 150 156 151 1
3 151 156 157 1
3 151 157 158 1
3 156 155 159 1
3 156 159 157 1
3 157 159 160 1
3 157 160 161 1
3 158 157 161 1
3 158 161 162 1
3 4 152 163 1
3 4 163 9 1
3 152 151 158 1
3 152 158 163 1
3 163 158 162 1
3 163 162 164 1
3 9 163 164 1
3 9 164 11 1
3 133 165 166 1
3 165 167 168 1
3 165 168 166 1
3 166 168 169 1
3 166 169 170 1
3 167 171 172 1
3 167 172 168 1
3 171 173 174 1
3 171 174 172 1
3 172 174 175 1
3 172 175 176 1
3 168 172 176 1
3 168 176 169 1
3 169 176 177 1
3 169 177 178 1
3 176 175 179 1
3 176 179 177 1
3 177 179 160 1
3 177 160 159 1
3 178 177 159 1
3 178 159 155 1
3 170 169 178 1
3 170 178 180 1
3 180 178 155 1
3 180 155 154 1
3 24 27 181 1
3 24 181 182 1
3 27 32 183 1
3 27 183 181 1
3 181 183 184 1
3 181 184 185 1
3 182 181 185 1
3 182 185 186 1
3 32 43 187 1
3 32 187 183 1
3 43 11 164 1
3 43 164 187 1
3 187 164 162 1
3 187 162 188 1
3 183 187 188 1
3 183 188 184 1
3 184 188 189 1
3 184 189 190 1
3 188 162 161 1
3 188 161 189 1
3 189 161 160 1
3 189 160 179 1
3 190 189 179 1
3 190 179 175 1
3 186 185 191 1
3 186 191 192 1
3 185 184 190 1
3 185 190 191 1
3 191 190 175 1
3 191 175 174 1
3 192 191 174 1
3 192 174 173 1
3 24 182 193 1
3 24 193 194 1
3 182 186 195 1
3 182 195 193 1
3 193 195 196 1
3 193 196 197 1
3 194 193 197 1
3 194 197 198 1
3 186 192 199 1
3 186 199 195 1
3 192 173 200 1
3 192 200 199 1
3 199 200 201 1
3 199 201 202 1
3 195 199 202 1
3 195 202 196 1
3 196 202 203 1
3 196 203 204 1
3 202 201 205 1
3 202 205 203 1
3 203 205 206 1
3 203 206 207 1
3 204 203 207 1
3 204 207 208 1
3 198 197 209 1
3 197 196 204 1
3 197 204 209 1
3 209 204 208 1
3 133 210 165 1
3 165 210 211 1
3 165 211 167 1
3 212 213 214 1
3 213 215 206 1
3 213 206 205 1
3 214 213 205 1
3 214 205 201 1
3 167 211 216 1
3 167 216 171 1
3 211 212 214 1
3 211 214 216 1
3 216 214 201 1
3 216 201 200 1
3 171 216 200 1
3 171 200 173 1
3 217 207 206 1
3 217 206 215 1
3 24 194 218 1
3 24 218 219 1
3 194 198 220 1
3 194 220 218 1
3 218 220 221 1
3 218 221 222 1
3 219 218 222 1
3 219 222 223 1
3 223 222 224 1
3 223 224 225 1
3 226 227 228 2
3 227 229 230 2
3 227 230 228 2
3 229 231 232 2
3 229 232 230 2
3 233 234 235 2
3 233 235 236 2
3 236 235 237 2
3 236 237 238 2
3 238 237 239 2
3 238 239 240 2
3 240 239 232 2
3 240 232 231 2
3 24 219 241 1
3 24 241 25 1
3 219 223 242 1
3 219 242 241 1
3 241 242 243 1
3 241 243 244 1
3 25 241 244 1
3 25 244 28 1
3 223 225 245 1
3 223 245 242 1
3 245 246 247 1
3 242 245 247 1
3 242 247 243 1
3 243 247 248 1
3 243 248 249 1
3 247 246 250 1
3 247 250 248 1
3 248 250 251 1
3 248 251 252 1
3 249 248 252 1
3 249 252 253 1
3 28 244 254 1
3 28 254 33 1
3 244 243 249 1
3 244 249 254 1
3 254 249 253 1
3 254 253 255 1
3 33 254 255 1
3 33 255 35 1
3 233 256 257 2
3 233 257 234 2
3 256 258 259 2
3 256 259 257 2
3 258 260 261 2
3 258 261 259 2
3 264 250 246 1
3 50 53 265 1
3 53 35 255 1
3 53 255 265 1
3 265 255 253 1
3 265 253 266 1
3 266 253 252 1
3 268 270 271 1
3 272 274 275 2
3 272 275 273 2
3 274 267 276 2
3 274 276 275 2
3 277 278 279 2
3 277 279 280 2
3 281 277 280 2
3 281 280 282 2
3 283 284 285 2
3 283 285 278 2
3 284 286 287 2
3 284 287 285 2
3 289 288 290 2
3 289 290 291 2
3 291 290 292 2
3 291 292 293 2
3 293 292 287 2
3 293 287 286 2
3 281 282 294 2
3 282 295 294 2
3 297 296 298 1
3 296 299 298 1
3 298 299 300 1
3 301 300 302 1
3 309 307 310 2
3 309 310 311 2
3 307 312 310 2
3 311 310 313 2
3 311 313 314 2
3 314 313 315 2
3 314 315 316 2
3 317 314 316 2
3 317 316 318 2
3 318 316 319 2
3 318 319 320 2
3 321 318 320 2
3 321 320 322 2
3 79 323 324 2
3 79 324 117 2
3 323 325 326 2
3 323 326 324 2
3 324 326 327 2
3 324 327 328 2
3 117 324 328 2
3 117 328 119 2
3 325 321 329 2
3 325 329 326 2
3 321 322 330 2
3 321 330 329 2
3 329 330 331 2
3 329 331 332 2
3 326 329 332 2
3 326 332 327 2
3 327 332 333 2
3 327 333 334 2
3 332 331 335 2
3 332 335 333 2
3 333 335 336 2
3 333 336 337 2
3 334 333 337 2
3 334 337 338 2
3 119 328 339 2
3 119 339 123 2
3 328 327 334 2
3 328 334 339 2
3 339 334 338 2
3 339 338 340 2
3 123 339 340 2
3 123 340 125 2
3 341 342 343 2
3 341 343 344 2
3 345 344 346 2
3 345 346 347 2
3 347 346 348 2
3 347 348 349 2
3 350 347 349 2
3 350 349 351 2
3 351 349 331 2
3 351 331 330 2
3 352 351 330 2
3 352 330 322 2
3 136 141 354 2
3 136 354 353 2
3 141 148 355 2
3 141 355 354 2
3 148 125 340 2
3 148 340 355 2
3 355 340 338 2
3 355 338 356 2
3 354 355 356 2
3 356 338 337 2
3 357 358 359 2
3 357 359 360 2
3 361 357 360 2
3 361 360 362 2
3 363 361 362 2
3 363 362 364 2
3 341 363 364 2
3 341 364 342 2
3 365 366 367 2
3 366 359 358 2
3 367 366 358 2
3 406 260 262 2
3 407 374 134 6
3 408 370 268 1
3 408 372 370 5
3 409 308 312 6
3 409 312 307 2
3 410 371 372 5
3 411 166 170 1
3 412 93 92 1
3 413 96 87 6
3 413 380 96 6
3 414 302 304 1
3 415 90 73 2
3 416 91 378 6
3 417 377 294 6
3 417 386 377 6
3 418 149 1 1
3 419 3 54 1
3 420 307 305 2
3 421 368 382 6
3 421 382 272 6
3 422 170 180 1
3 423 372 371 6
3 423 371 288 2
3 424 379 375 6
3 425 373 391 6
3 426 288 289 2
3 426 289 370 6
3 426 370 288 6
3 427 69 68 2
3 428 405 268 1
3 428 268 368 5
3 428 368 405 5
3 429 368 268 5
3 429 268 382 1
3 429 382 368 5
3 430 180 154 1
3 431 96 380 5
3 431 95 96 1
3 432 97 101 2
3 433 381 384 6
3 434 383 384 5
3 435 73 69 2
3 436 55 59 6
3 437 375 380 6
3 438 269 405 6
3 438 405 368 6
3 439 304 306 1
3 440 375 379 5
3 441 377 386 5
3 442 376 386 6
3 443 396 394 5
3 444 268 405 5
3 444 405 369 5
3 445 134 385 6
3 446 142 137 2
3 447 134 374 5
3 448 381 303 5
3 449 402 401 5
3 450 391 374 6
3 451 378 379 6
3 452 383 387 6
3 453 98 399 5
3 454 306 308 1
3 454 308 387 5
3 455 369 405 6
3 455 405 269 2
3 455 269 369 6
3 456 397 388 6
3 457 116 142 2
3 458 91 395 5
3 459 58 59 5
3 459 59 55 5
3 460 398 394 6
3 461 380 375 5
3 462 303 381 6
3 462 305 303 2
3 463 373 133 5
3 463 391 373 5
3 464 55 390 5
3 465 379 378 5
3 466 68 403 6
3 466 403 392 6
3 467 71 72 1
3 468 397 385 5
3 469 386 376 5
3 469 376 296 5
3 470 404 98 5
3 471 400 395 6
3 472 398 388 5
3 473 394 396 6
3 474 401 396 5
3 475 400 392 5
3 476 401 402 6
3 477 374 391 5
3 478 399 402 5
3 479 396 401 6
3 480 402 399 6
3 483 390 393 5
3 484 404 418 5
3 484 418 1 1
3 484 389 404 5
3 486 404 389 6
3 272 273 269 2
3 272 269 438 2
3 438 368 421 2
3 438 421 272 2
3 267 263 406 6
3 267 406 262 2
3 261 260 406 2
3 261 406 263 6
3 270 268 444 1
3 270 444 369 1
3 135 136 450 2
3 407 135 450 2
3 407 450 374 6
3 447 374 477 5
3 353 373 425 2
3 353 425 136 2
3 138 135 407 2
3 133 166 411 1
3 137 138 407 2
3 385 134 411 5
3 411 134 447 5
3 411 447 133 1
3 85 90 415 2
3 72 93 412 1
3 415 91 416 6
3 415 416 85 2
3 395 91 415 6
3 412 91 458 5
3 412 458 72 1
3 378 91 412 5
3 87 86 424 2
3 95 440 92 1
3 424 375 437 6
3 424 437 87 2
3 440 95 461 1
3 440 461 375 5
3 295 376 442 2
3 295 442 294 2
3 86 85 416 2
3 416 378 451 6
3 416 451 86 2
3 412 92 465 1
3 412 465 378 5
3 271 371 410 5
3 271 410 268 1
3 301 302 448 1
3 301 448 303 5
3 308 452 387 6
3 436 390 55 6
3 54 58 459 1
3 459 55 464 5
3 459 464 54 1
3 102 432 101 2
3 150 149 470 1
3 432 98 481 6
3 432 399 98 6
3 453 150 470 1
3 453 470 98 5
3 484 0 486 3
3 484 486 389 7
3 2 3 483 1
3 483 393 482 5
3 483 482 2 1
3 482 393 485 7
3 482 485 0 3
3 370 372 423 6
3 370 423 288 2
3 410 372 408 5
3 410 408 268 1
3 452 308 409 6
3 452 409 307 2
3 413 87 437 2
3 413 437 380 6
3 431 380 461 5
3 431 461 95 1
3 67 63 436 2
3 67 436 59 2
3 297 377 441 1
3 297 441 296 1
3 384 381 414 5
3 414 381 448 5
3 414 448 302 1
3 383 433 384 6
3 154 153 474 1
3 443 154 474 1
3 443 474 396 5
3 479 114 473 2
3 479 473 396 6
3 397 430 388 5
3 417 294 442 2
3 417 442 386 6
3 469 296 441 1
3 469 441 386 5
3 153 150 453 1
3 453 399 478 5
3 453 478 153 1
3 432 102 480 2
3 432 480 399 6
3 400 427 392 6
3 418 404 470 5
3 418 470 149 1
3 433 383 420 6
3 433 420 305 2
3 420 383 452 6
3 420 452 307 2
3 434 304 439 1
3 434 439 383 5
3 387 383 439 5
3 398 443 394 5
3 419 54 464 1
3 419 464 390 5
3 419 390 483 5
3 419 483 3 1
3 424 86 451 2
3 424 451 379 6
3 440 379 465 5
3 440 465 92 1
3 433 305 462 2
3 433 462 381 6
3 411 170 422 1
3 411 422 385 5
3 422 180 468 1
3 422 468 385 5
3 397 445 385 6
3 427 68 466 2
3 427 466 392 6
3 467 72 475 1
3 467 475 392 5
3 403 71 467 1
3 403 467 392 5
3 430 154 472 1
3 430 472 388 5
3 456 388 446 6
3 456 446 137 2
3 398 446 388 6
3 407 134 445 6
3 407 445 137 2
3 116 473 114 2
3 473 116 457 2
3 473 457 394 6
3 460 394 457 6
3 460 457 142 2
3 449 153 478 1
3 449 478 402 5
3 476 402 480 6
3 476 480 102 2
3 435 69 471 2
3 435 471 395 6
3 400 458 395 5
3 414 304 434 1
3 414 434 384 5
3 476 479 401 6
3 474 153 449 1
3 474 449 401 5
3 430 397 468 5
3 430 468 180 1
3 445 397 456 6
3 445 456 137 2
3 443 398 472 5
3 443 472 154 1
3 446 398 460 6
3 446 460 142 2
3 427 400 471 6
3 427 471 69 2
3 458 400 475 5
3 458 475 72 1
3 439 306 454 1
3 439 454 387 5
3 479 476 114 2
3 432 481 97 2
3 2 482 1 1
3 0 97 486 2
3 481 486 97 2
3 73 435 395 6
3 73 395 415 2
3 484 1 482 1
3 484 482 0 3
3 476 102 113 2
3 476 113 114 2
3 391 450 136 2
3 391 136 425 6
3 391 463 133 1
3 391 133 447 1
3 391 447 477 5
3 485 436 63 2
3 485 63 61 2
3 485 61 0 2
3 393 390 436 2
3 393 436 485 6
3 486 481 98 2
3 486 98 404 2
