ply
format ascii 1.0
comment mesh silhouettes
element vertex 158
property float x
property float y
property float z
property float nx
property float ny
property float nz
element face 271
property list uchar int vertex_index
property uchar int
end_header
0.0753522532409242 0.6787260317405451 1.1897310393384695 -0.4225561703252981 -0.2834439361552366 -0.8608750304061814
-0.0632340401036100 0.1655488635197065 1.3143103460351098 0.3999340864580884 -0.0519371101405734 0.9150711792419103
0.2868021275113085 0.5007102645181358 1.0212020736219189 0.7867560849761192 0.0668655072223686 0.6136317028128069
0.2844452322506902 1.0231497325926531 0.7738932317515379 0.6527942167148808 0.5374169418537501 0.5338939419324480
-0.0576831747977479 -0.5910165121047243 1.1073013204942053 0.3779600268979960 -0.3779630649361925 0.8451568727823880
0.4598763193495197 0.1610433046840480 0.7627403743934118 0.8401237250435276 -0.0142047445927895 0.5422087714617321
0.6901640261279621 0.8608882702409644 0.0436993748467787 0.9485358130395148 0.2239175104004066 0.2239213252853561
0.0722393470528504 1.2942378080147585 0.5351369909910574 0.1267237321074214 0.9388492514396325 0.3201611762722148
-0.0445467545581223 1.1322782905406956 0.7284704658943559 -0.9466288888284974 -0.3218083188643158 0.0182524722995876
0.2173182342392490 0.8416559837098755 0.8187444231440717 -0.6540146076427821 -0.7384373210320421 -0.1642413343128908
0.3126809640612400 0.5558069608897040 1.0731175717831369 -0.6379716706239923 -0.1737650513510477 -0.7501985433271648
0.0676384547514081 1.1184282679285471 0.2097451648914223 -0.8090169923230468 -0.5000000028356569 -0.3090169951587037
0.4165215512702381 0.7237156001539132 0.4445030589572120 -0.6685789222158621 -0.7322429201882988 -0.1297016985347097
0.6186016312075472 0.2443498446433290 0.5910165121047243 -0.5877869285229199 0.6881902998137925 -0.4253241562617791
0.3537278338735252 0.4320145356908683 1.0307907206407754 -0.5743680509132589 0.2951129424505920 -0.7635507142870457
-0.4590072960955514 0.2568889566884239 1.2573089657772047 -0.6009846507565905 0.7919878720153383 -0.1075762991350566
-0.1849933094377102 0.1023148234160964 0.8122884601366814 -0.1585739771897497 0.9448162032895169 -0.2866646747679369
-0.8104518360489772 -0.5273460404554339 1.0283073901273385 -0.5810834305325581 -0.3350727065152034 0.7416659140806527
-0.4764211326371843 -0.0000000000000000 1.3345545177285607 -0.2907576539758112 -0.0260918492615928 0.9564409035881897
-0.6888681388075993 -0.4377612501201458 1.1460738348457489 -0.4541803995290639 -0.3261651800597583 0.8290575613310607
-0.8192444952421905 -0.8192444952421905 0.8248000508639733 -0.5616463896196010 -0.5953390966103276 0.5745647857939663
-0.4437699145146058 -1.1108985015742832 0.6985903617666012 -0.2784270124154517 -0.8272176911238275 0.4880464017377547
-1.1161751892201464 -0.7184398556876559 0.4359838059661721 -0.8215179480183222 -0.4897617423908456 0.2919618070468262
-0.7420330218252628 -1.0139679855714148 0.0000000000000000 -0.3779688089942235 -0.8451520639263468 -0.3779650357751686
-0.0164331737597886 -1.2694570887851360 0.4800569696989654 0.1224894525423226 -0.9500144624424509 0.2871739110122349
0.3527876582686138 -0.9550718610135785 0.5902668739560447 0.7159902611060206 -0.4656301907122540 0.5201408189121504
0.5333333373069763 -0.9562848107736667 -0.1510165097205385 0.6974521538668608 -0.6974601364752281 -0.1646506941814487
-0.0217395517479219 -1.1865424123065496 -0.0157308873534619 -0.0117034694818916 -0.8714908159645987 -0.4902721555334797
0.6009414948276547 -0.3307063588809406 0.4983692619174058 0.8915308164210101 -0.0930747717944532 0.4432943606985066
0.7381489703926339 -0.1961238568404016 -0.0111210654575767 0.9973655529129448 -0.0667811068088335 0.0283237998164622
0.6566160446572600 0.0417314606488213 -0.6664074200976893 0.9536510273927624 -0.2986107441906473 0.0371664015831024
0.8248395945522079 0.2186039686797380 -0.8355374016180208 0.4300153904805349 -0.6119862056373196 0.6637466746127693
0.8797388746034333 0.6639259716818439 -0.5376234051554559 0.9567714078605425 0.2520067051644814 0.1451932975474333
0.6547231132413691 -0.2987044025180521 -0.5173353432396733 0.9549628912971648 -0.0783338884274159 -0.2861986690556063
0.2375836626707925 1.2813361572921813 0.0866227088173388 0.0602506281524805 0.9487015846647227 -0.3103790667262784
0.5479113897969250 1.0026022509993926 -0.2920089897889933 -0.1826970727030037 0.5231874737278800 -0.8324041367989423
0.5422403117832261 0.7758797565445024 -0.2665503074257640 -0.7460978538155821 -0.5266116536057539 -0.4074532596732975
0.6929902769833236 0.5500204266945096 0.0087660541302419 -0.6844661528305290 -0.7205038696095438 -0.1112666145213750
0.9041291283702366 0.2039459216284348 -0.1117228422194989 -0.8754733223014493 0.4633109662982232 -0.1374387516178367
0.4895598872943194 0.0506747964968046 -0.2564450356350689 -0.1021259919376617 0.9942388642078074 0.0325478519954499
-0.0712345983628677 0.0173825498296599 0.0340499322382802 -0.0739216014609178 0.9957867943418273 -0.0542610085778056
-0.4941488164158533 -0.0075227892181429 0.3231284452299771 -0.1196293410042539 0.9914698583936329 -0.0517333612652172
-0.8052683010531283 -0.0576831747977479 -0.5910165121047243 -0.3057799634795689 0.9449110500600698 0.1167977799823686
-1.1075774848494775 -0.1715575279141665 0.1180457107695583 -0.5257311133352895 0.8506508076004142 -0.0000000004854750
-1.2791537607476009 -0.5051051279258443 0.0211612060705170 -0.9834206406834162 -0.1748042626099972 -0.0482422351388741
-0.0173932744341218 1.0801801645773577 0.7571084212385024 -0.8062440930080861 -0.5837361890446946 -0.0960339736194710
0.3658342853270099 0.0386888596911759 -0.2576487077045773 -0.0855604522368083 0.9963320278026744 0.0013781827323578
0.7174270480185668 0.7594132622184606 -0.0167405320911990 0.9823994082643103 0.1026877704533850 0.1560340489804897
-0.8217790520054096 -0.0749476023124040 -0.3957680800187272 -0.2575079905888047 0.9659316243484588 0.0258017802964052
0.4831136912446197 -1.0035088460516852 0.2402931281515622 0.8083170670214230 -0.5541404656631722 0.1988765030778826
0.7235136018635447 -0.2116985547436014 0.1373076270322555 0.9861227240041119 -0.0714916428773704 0.1498363046841608
-0.9406122257430175 -0.1235232616344892 0.7812020298268052 -0.6102577324173153 0.7840873614686202 0.1131039769860180
0.7190953407452571 0.0902020866493448 -0.2259590519800418 -0.2515175989373854 0.9676870676021112 -0.0179063290598474
-0.8315801519456351 -0.9760656799434319 0.5502604541363550 -0.5727352604293782 -0.7717639849706585 0.2763234933245845
0.6099246611124705 -0.7884617274851896 0.1531618884735383 0.9249726282231221 -0.3391047235262890 0.1715623021533844
0.6768723396447198 0.1160927498206710 -0.7094062661848206 0.9336410788596375 -0.3428666215035957 0.1037150699007723
-0.8292987135181398 -0.0765584372935486 -0.4116361192444197 -0.2683946273642788 0.9629162306826473 0.0275073933681973
-0.9259106818852301 -0.1207015415937879 0.8409273008932175 -0.6691614442095114 0.7320580167323854 0.1277263548422472
0.5982292181458729 0.6720380713205196 -0.1700392658000953 -0.7016646261771646 -0.6916593102465217 -0.1710969050595761
0.7443379942826436 0.4674048389478662 0.1531481839841069 -0.7394443956503537 -0.6497461319661887 -0.1762156341992937
-0.8763316280657683 -0.0882089359295236 0.9278793156378511 -0.7040156069145408 0.6969610289972039 0.1364087580762667
0.2297775484853453 0.8261664993607600 0.8373805368613605 -0.6574774330242961 -0.7313030673596030 -0.1814366245668670
0.0520688026743385 1.0743161988657821 0.3839235547336529 -0.7393868194957103 -0.6538665389989158 -0.1605169160356541
-0.5338904642690713 -1.1475880382443311 0.5375150522512617 -0.3814182889397432 -0.8832419994228228 0.2727703417123145
0.5415412363313695 0.5892059710210283 0.5075607083401420 -0.7177299078225503 -0.6739940683752826 -0.1749164806756877
-0.0001118616539327 0.7417387946169667 1.2008159210105478 0.5593953187253196 0.8135441381233448 0.1588169157027746
0.0001127726051148 0.7423268906446029 1.2004524517312729 0.5544279235235332 0.8167860501895544 0.1595939404649500
0.6114413941424214 1.0373595596799097 0.0550118273544768 0.8201582821313664 0.5310812567139037 0.2128217353056464
0.6708555808953229 0.9786396971977537 -0.0477635221858324 0.8710984506127381 0.4474105452306835 0.2025124523491574
0.3348402168564166 0.8628347666758692 0.0954948070284724 -0.6758796422493359 -0.7166092826441856 -0.1722145325490722
0.3207645581719353 0.7450564481812709 0.8168879676009051 -0.6940898428699935 -0.6976663335821045 -0.1774851458877937
0.2079109190962419 0.8454668547896736 0.8378800627063515 -0.6494182187823107 -0.7382317624698059 -0.1824002247650341
-0.0002780878764156 0.7413090101806166 1.2010808654857448 0.5870367965161679 0.7945816234851505 0.1550091711987964
0.1417232112343040 1.0038441268563645 0.2817903361285122 -0.7010982377004914 -0.6928761456092034 -0.1684752442912582
0.0177460255403842 0.9592799737223652 1.0159253485775044 -0.9630143176827789 -0.2609560190510643 -0.0671221279384996
0.7124983076471826 0.7310624182870297 0.0355050434031250 0.9806866019121920 0.1155965965842629 0.1577695017677780
0.0002753162345328 0.7427578452252219 1.2001854215006282 0.5839087397003826 0.7967325556755399 0.1557813160434638
-0.0509881759080975 1.1657270520353040 0.5866016491979501 -0.9130122793356541 -0.3968869705949885 -0.0942831392893040
-0.0293342741181712 1.1393201030483717 0.5367684294931647 -0.8264780727571539 -0.5467551809626162 -0.1341371214174412
-0.8641156672982246 -0.0816012730987685 -0.5611882192820274 -0.3888873259365995 0.9200951365962231 0.0468143924221875
0.0000009648497235 0.7420324129353534 1.2006342666040473 0.5571825179393590 0.8149920553864296 0.1591715783667386
0.0039955652797685 1.0209238552691056 0.9074659770266519 -0.8347766238859363 -0.5340254089223929 -0.1340330214494512
0.7346182375673798 0.7168771334915192 -0.1123415193428888 0.9890772733892146 0.0238029501444792 0.1454632834407925
-0.9210085783184832 -0.1190409655748256 0.8573178378989089 -0.6852096787773784 0.7163300981265303 0.1317531275827538
-0.3911024265316578 -0.0147355909857834 -0.2230336036042931 -0.0895845478394003 0.9959715923203295 0.0038982148885917
0.3468859569436312 0.0487953903241337 -0.0001248633945161 -0.0956012527168510 0.9917258375509671 -0.0856753384166157
-0.0466045057527033 -0.8652361821118436 0.9553872183130319 0.2839824703655611 -0.5228019771377830 0.8037611891761746
-0.7018520883201722 -0.0413747620181800 0.2146579035433839 -0.1661754430097072 0.9854773780717065 -0.0349293493990708
-1.0453410009922075 -0.6735899008311682 0.6560644601058421 -0.7989649983258950 -0.4194739981792927 0.4309251632262630
0.4497968860580570 -0.9542059294692254 0.4241198833294991 0.8033893279126050 -0.4692452966267981 0.3665711927985628
0.7527834922175548 0.8347365196523389 -0.2078070301813106 0.9620910157454268 0.0875900069502531 0.2582805995509295
-0.4465813407057926 0.2324077773732276 1.1742674015368202 -0.3519529739378056 0.7836927137391807 -0.5118152347951875
-0.8564093699230910 -1.0031735739517254 0.3490695298455723 -0.5689025962129460 -0.8185411382045756 0.0796256308541882
0.1149782013914327 0.9590232940944377 0.9904574140226325 0.4511140295016119 0.5849954347099863 0.6740003514504225
0.4886662470527068 -1.0258002531132346 0.1075253252845156 0.7690281413477096 -0.6361725362373167 0.0622914276017748
0.6909860092357514 0.0962999657902612 -0.0394542222720957 -0.2409692273886582 0.9639069806213149 -0.1132129151696626
0.7207651830164542 0.2293536858487933 0.4109433547007821 -0.6803042664006029 0.6160231769014601 -0.3971165454087374
0.6186931916122792 -0.8026391397796158 0.0585249770415257 0.9290608983805898 -0.3550095685777236 0.1039906405332225
0.5502137401833235 1.0361380693849995 -0.2666158805668635 -0.0031736038278111 0.6769597384324407 -0.7360132069332896
0.7087204505238893 0.4438126344940088 0.3520659795111198 -0.7829750551394176 -0.5726641517957350 -0.2429111612863793
0.6694848832816779 1.0021752347346362 -0.2470104765578647 0.6022832106128847 0.7666258761611984 -0.2225751563268250
0.5235466638155283 0.5697954892415079 0.6472117571761032 -0.7570463162189860 -0.6217703672153105 -0.2007049714187493
-0.7970072968914069 -0.9342863897059335 0.6949898139868949 -0.5400382462630466 -0.7268827152612554 0.4242643171745152
0.5901110205680771 -0.7673577109848695 0.2710159190658601 0.9116397228012001 -0.3215916918565896 0.2559136564151418
0.2060704926318095 0.7757297910987495 1.0090942365947668 -0.6241142707653231 -0.6512154322024494 -0.4317404751565991
0.0553857367240739 1.0268184518015060 0.6115914425708339 -0.6979683118531247 -0.7056458088749348 -0.1220828737626135
0.7323895711686399 -0.2147781450970615 0.0625859598336028 0.9931928991940371 -0.0729248669252609 0.0908285680525478
-0.3868861657272790 0.1692959458590746 1.3485439352833841 -0.2382862241674507 0.1342534781653737 0.9618709263578554
0.4808739862132323 0.0516636370199119 -0.1651828985350334 -0.1120460932374122 0.9928747791395703 -0.0405628640357465
-0.9635957222100459 -0.1177664475980678 -0.2023913669589080 -0.3486465169893823 0.9364784528222747 -0.0381275961840097
0.5880603248477699 0.6603726246766471 -0.0665373849347813 -0.6806298198720462 -0.7208661468143662 -0.1307480274342776
0.5516526594281896 0.6002485700090580 0.4213179385839458 -0.6981834194175806 -0.6963148947787555 -0.1663895434203286
0.6730069927615234 0.1095813153409415 -0.6865582632524244 0.9551237579736971 -0.2941200784730271 0.0350996637195138
0.7564648941920705 0.4748010035242019 0.0682904149848912 -0.7301472030310776 -0.6671022453117368 -0.1478501139868807
-0.3880104648988195 -0.0144279177281641 -0.1815119011628730 -0.0899333736052757 0.9959346393111348 -0.0051168869612109
0.3397578946967267 0.8745424924541323 0.0329404042998045 -0.6903710255855432 -0.6946594835697759 -0.2020793134354365
-0.5242383481178021 -1.1266278257399849 0.6065528288899686 -0.3595006102154815 -0.8609118405827757 0.3599862691813033
0.1405413941794461 0.9919691552928844 0.3404129966264325 -0.6914053850183234 -0.7077748118520617 -0.1449600264743447
-0.8812710130170891 -0.0891421045922866 0.9029920856684673 -0.6621548423672117 0.7446466460740110 0.0839781949102250
0.7366880728205873 0.7188360417715322 -0.1262908629180187 0.9881462801754178 0.0112549419351549 0.1531021072928814
0.7204767751972569 0.6863484771223249 0.0134817008607118 0.9867860486617294 0.0941662771095963 0.1318560063929202
0.7323050998186517 0.7145431567423983 -0.0956713469820635 0.9897030768251804 0.0377465689645714 0.1380688822804543
0.0036068689896636 1.0364174191662918 0.8441300607143846 -0.7796359456402264 -0.6119430463514297 -0.1330169172992738
0.3236463979986635 0.7523301168020138 0.7734539204676587 -0.6892603951099161 -0.7083923276287075 -0.1519882162856852
0.0227490379104049 0.9575862134194177 1.0290068225556963 -0.3638947105789269 0.6311473729228828 0.6850063016244614
-0.6825368678017832 -0.0145009056054235 0.7045641741689932 -0.2507305171460446 0.9630217158621251 -0.0986072134767301
0.3144570627502349 0.7322422868118129 0.8806102871178391 -0.6968338760154705 -0.6750980190515504 -0.2422090293732426
0.0182882692484141 0.9616377366565848 1.0067320699036570 -0.8833747147435490 -0.4246281487345748 -0.1983432596636480
-1.0323097894602973 -0.1490508921721424 -0.2249346001118263 -0.4571884635155681 0.8866843325292488 -0.0690623144372861
0.0147007092858318 0.9755615803735188 0.9921863236208802 -0.9183106862570748 -0.3757721492587020 -0.1245021098116660
-0.8507361440707372 -0.0926797611773807 1.0155385844927929 -0.8033838280809270 0.4666029776055788 0.3699406520884712
0.0593275666529605 1.1120463498076287 0.2445950667512034 -0.7960123576081722 -0.5432924505642052 -0.2668288584374259
-0.9234284567889918 -0.1193685271292351 0.8463741925178138 -0.6720117637538309 0.7297809051137067 0.1257776606074557
0.6642293900588742 0.9695179258571817 -0.0023740105732426 0.8804919358268272 0.4170949643449138 0.2253125421765098
-0.8052618540771718 -0.0646947424319093 -0.5160727669088494 -0.2726435739074949 0.9595855873749349 0.0697207437514079
0.2063173609143149 0.8397203878729833 0.8646972789713462 -0.6469278348890546 -0.7329461259591366 -0.2104147164227197
-0.0240749485088849 1.0960920454237912 0.7173394989505395 -0.8126303426649701 -0.5747898257121768 -0.0961695504719589
-0.0288814329510144 1.1553985097062940 0.4761291911407016 -0.8489139913030007 -0.5037683390853133 -0.1598827567476669
-0.0486281939454971 1.1465589308253166 0.6617830944994512 -0.9132667354334162 -0.4038253296906631 -0.0535627953995846
0.7210403107979720 0.7631394910763567 -0.0412685965866540 0.9830165913820074 0.0852447308024112 0.1625168204775250
0.7074468863020836 0.7781370488313641 0.0235767691293223 0.9766465993008021 0.1325605182700593 0.1690832016202432
0.2084394919073841 0.8477389424800896 0.8264488171237102 -0.6506135484663611 -0.7397536822470460 -0.1716580908490670
0.2302561501508770 0.8279616813510277 0.8281594979710898 -0.6587017091193689 -0.7324921869584494 -0.1719513141794804
-0.8588771764933412 -0.0803371028430712 -0.5564820891366294 -0.3778529800118672 0.9246096454638024 0.0482092212284445
-0.9324047392305748 -0.1225069139757882 0.8178111724877029 -0.6461498200918118 0.7528552917963911 0.1252969257782890
-0.9176453966020627 -0.1186728820029973 0.8721794700461675 -0.7054227424893093 0.6927445915751439 0.1499456075456989
-0.9241737725055096 -0.1203393625270023 0.8479651440606164 -0.6770016214629481 0.7244637135113229 0.1296963081275757
0.0002760805757598 0.7427590946113205 1.2001845685906309 0.4125986056949016 0.5300340112771899 0.7408281430048638
0.0000797355833392 0.7421706586528491 1.2005388890088737 0.3371993493070892 0.3988381853320391 0.8527747069114572
-0.0000348057731076 0.7418732600263607 1.2007230663291706 0.3367934256087322 0.3981218466829064 0.8532697015952974
0.0378265050593733 0.8051265117223743 1.1441954458185237 -0.4842145401883736 -0.5074470268612918 -0.7127648939164984
-0.0002755350587503 0.7413131221872111 1.2010781822791194 0.3376215163540300 0.4137934681637553 0.8454505765565582
0.1713600412412381 0.8224133562918823 0.9708008778988874 -0.6384613049480306 -0.7235548819807905 -0.2623651936629974
-0.0001133886652801 0.7417361610234880 1.2008175869946833 0.2334799627912753 0.4288991485914664 -0.8726583680412970
-0.0000012756199420 0.7420284475677211 1.2006371074203361 0.1314506843305798 0.2955106175392825 -0.9462527107018368
-0.8193504850397579 -0.0639391785822662 -0.5768322780762637 -0.3248774899272399 0.9414605954328648 0.0900364580921083
-0.8586075018165857 -0.0802193006702877 -0.5566284773582878 -0.3775079821151037 0.9247360181431038 0.0484873198704552
-0.8592836418714712 -0.0801898476278964 -0.5623491447630687 -0.3821209459798421 0.9227084220569215 0.0509190584034753
3 4 5 2 1
3 4 2 1 1
3 6 3 2 1
3 6 2 5 1
3 0 10 14 2
3 13 16 14 2
3 13 14 10 2
3 17 19 18 1
3 4 1 18 1
3 4 18 19 1
3 4 19 20 1
3 4 20 21 1
3 17 20 19 1
3 4 25 28 1
3 4 28 5 1
3 6 5 28 1
3 11 34 35 2
3 11 35 36 2
3 13 40 41 2
3 13 41 16 2
3 85 13 46 6
3 85 46 40 6
3 85 40 13 2
3 86 4 21 1
3 86 21 24 5
3 88 17 22 5
3 88 22 20 5
3 88 20 17 1
3 89 28 25 1
3 90 31 32 5
3 91 60 15 6
3 92 53 22 6
3 92 22 23 2
3 93 3 7 1
3 94 49 24 6
3 95 52 39 6
3 96 59 38 6
3 97 50 54 6
3 97 26 50 2
3 98 35 34 2
3 98 34 67 6
3 98 67 35 6
3 99 64 59 6
3 100 32 35 2
3 100 68 32 6
3 101 70 64 6
3 102 21 20 1
3 103 49 54 5
3 104 10 0 2
3 106 26 29 2
3 106 29 50 6
3 106 50 26 6
3 107 72 15 5
3 108 39 46 6
3 108 46 13 2
3 109 48 56 6
3 110 58 37 5
3 110 37 69 1
3 110 69 58 5
3 111 59 64 5
3 112 55 82 6
3 112 82 30 2
3 112 30 55 6
3 113 37 38 1
3 113 38 59 5
3 114 40 84 6
3 114 84 48 6
3 115 58 69 6
3 115 69 11 6
3 116 53 63 5
3 116 63 21 5
3 117 62 73 5
3 117 73 12 5
3 118 14 83 2
3 118 83 60 6
3 119 6 82 5
3 119 82 55 5
3 120 47 75 6
3 120 75 29 6
3 121 30 82 6
3 121 82 47 6
3 122 71 81 5
3 123 64 70 5
3 124 74 76 5
3 125 51 57 6
3 126 61 70 6
3 127 76 74 6
3 128 56 79 5
3 129 81 76 5
3 130 17 18 1
3 131 62 78 6
3 132 57 83 6
3 132 83 14 6
3 133 68 67 5
3 133 67 6 1
3 134 56 48 5
3 135 71 61 6
3 136 77 78 5
3 136 45 77 1
3 137 77 11 2
3 137 78 77 6
3 138 45 8 1
3 138 8 77 5
3 138 77 45 5
3 139 82 6 1
3 139 6 47 5
3 139 47 82 5
3 140 47 6 5
3 140 6 75 1
3 140 75 47 5
3 142 70 61 5
3 143 79 56 5
3 144 57 51 5
3 144 51 17 5
3 145 83 17 5
3 145 60 83 5
3 146 17 83 1
3 146 83 57 5
3 147 7 124 1
3 147 124 76 5
3 147 76 66 5
3 148 66 80 5
3 149 80 65 5
3 151 72 1 5
3 151 65 72 5
3 152 66 76 6
3 29 33 30 2
3 29 30 121 2
3 121 47 120 2
3 121 120 29 2
3 41 51 125 2
3 41 125 16 2
3 25 4 86 1
3 25 86 24 5
3 27 26 94 2
3 27 94 24 2
3 41 40 114 2
3 114 48 87 6
3 114 87 41 2
3 87 48 109 6
3 87 109 43 2
3 84 42 134 1
3 84 134 48 5
3 14 16 125 2
3 125 57 132 6
3 125 132 14 2
3 109 56 128 7
3 31 119 55 1
3 1 72 107 5
3 1 107 18 1
3 2 3 93 1
3 93 66 148 5
3 93 148 2 1
3 93 7 147 1
3 93 147 66 5
3 80 66 152 6
3 1 2 149 1
3 151 1 149 1
3 151 149 65 5
3 12 9 105 1
3 105 62 117 5
3 105 117 12 1
3 78 62 105 5
3 13 10 126 2
3 101 13 126 2
3 101 126 70 6
3 123 70 142 5
3 123 142 9 1
3 63 53 92 6
3 63 92 23 2
3 24 49 89 5
3 24 89 25 1
3 89 49 103 5
3 89 103 28 1
3 60 107 15 5
3 52 96 38 6
3 91 14 118 2
3 91 118 60 6
3 107 60 130 5
3 107 130 18 1
3 130 60 145 5
3 130 145 17 1
3 95 39 108 6
3 95 108 13 2
3 12 37 113 1
3 96 13 99 2
3 96 99 59 6
3 111 12 113 1
3 111 113 59 5
3 22 53 102 5
3 22 102 20 1
3 36 58 115 2
3 36 115 11 2
3 81 71 135 6
3 68 90 32 5
3 50 28 103 1
3 50 103 54 5
3 90 68 133 5
3 90 133 6 1
3 67 68 100 6
3 67 100 35 2
3 99 13 101 2
3 99 101 64 6
3 9 12 111 1
3 111 64 123 5
3 111 123 9 1
3 102 53 116 5
3 102 116 21 1
3 54 49 94 6
3 7 8 45 1
3 96 52 95 6
3 96 95 13 2
3 104 61 126 6
3 104 126 10 2
3 104 0 135 2
3 104 135 61 6
3 71 142 61 5
3 127 129 76 3
3 152 76 150 6
3 122 141 71 5
3 142 71 141 5
3 142 141 9 1
3 73 62 131 6
3 73 131 11 2
3 94 26 97 2
3 94 97 54 6
3 105 45 136 1
3 105 136 78 5
3 137 11 131 2
3 137 131 78 6
3 91 15 72 6
3 148 80 149 5
3 148 149 2 1
3 152 0 154 2
3 109 128 43 3
3 9 141 105 1
3 150 135 152 2
3 0 152 135 2
3 43 128 79 7
3 43 79 44 2
3 119 31 90 1
3 119 90 6 1
3 122 45 105 1
3 122 105 141 1
3 129 124 7 1
3 129 127 74 7
3 129 74 124 5
3 56 134 42 1
3 72 14 91 2
3 57 144 17 1
3 57 17 146 5
3 76 81 135 2
3 76 135 150 6
3 81 45 122 5
3 81 129 7 5
3 81 7 45 1
3 153 0 14 2
3 152 154 65 2
3 152 65 80 2
3 65 153 14 6
3 65 14 72 2
3 65 154 0 2
3 65 0 153 6
3 79 155 42 1
3 42 155 56 1
3 79 143 156 1
3 156 143 56 5
3 79 156 157 1
3 79 157 155 1
3 157 156 56 1
3 155 157 56 1
