ply
format ascii 1.0
comment mesh silhouettes
element vertex 45
property float x
property float y
property float z
property float nx
property float ny
property float nz
element face 60
property list uchar int vertex_index
property uchar int
end_header
0.0000000000000000 0.7420330218252628 1.2006346554169958 -0.0688069668357236 0.0011420956160194 -0.9976293384481391
-0.0632340401036100 0.1655488635197065 1.3143103460351098 0.3999340864580884 -0.0519371101405734 0.9150711792419103
0.2868021275113085 0.5007102645181358 1.0212020736219189 0.7867560849761192 0.0668655072223686 0.6136317028128069
0.2844452322506902 1.0231497325926531 0.7738932317515379 0.6527942167148808 0.5374169418537501 0.5338939419324480
-0.0576831747977479 -0.5910165121047243 1.1073013204942053 0.3779600268979960 -0.3779630649361925 0.8451568727823880
0.4598763193495197 0.1610433046840480 0.7627403743934118 0.8401237250435276 -0.0142047445927895 0.5422087714617321
0.6901640261279621 0.8608882702409644 0.0436993748467787 0.9485358130395148 0.2239175104004066 0.2239213252853561
0.0722393470528504 1.2942378080147585 0.5351369909910574 0.1267237321074214 0.9388492514396325 0.3201611762722148
-0.0445467545581223 1.1322782905406956 0.7284704658943559 -0.9466288888284974 -0.3218083188643158 0.0182524722995876
0.2173182342392490 0.8416559837098755 0.8187444231440717 -0.6540146076427821 -0.7384373210320421 -0.1642413343128908
0.3126809640612400 0.5558069608897040 1.0731175717831369 -0.6379716706239923 -0.1737650513510477 -0.7501985433271648
0.0676384547514081 1.1184282679285471 0.2097451648914223 -0.8090169923230468 -0.5000000028356569 -0.3090169951587037
0.4165215512702381 0.7237156001539132 0.4445030589572120 -0.6685789222158621 -0.7322429201882988 -0.1297016985347097
0.6186016312075472 0.2443498446433290 0.5910165121047243 -0.5877869285229199 0.6881902998137925 -0.4253241562617791
-0.0464116790673289 0.3231284452299771 1.1348501512540248 -0.2022209819332589 0.6566268013292461 -0.7266002465194128
-0.4404488977898002 0.2722123866004393 1.2483886582618453 -0.6009846507565905 0.7919878720153383 -0.1075762991350566
-0.1849933094377102 0.1023148234160964 0.8122884601366814 -0.1585739771897497 0.9448162032895169 -0.2866646747679369
-0.9562848107736667 -0.1510165097205385 0.8353663567480533 -0.7559282748779502 0.6115620885011562 0.2335899294664694
-0.4764211326371843 -0.0000000000000000 1.3345545177285607 -0.2907576539758112 -0.0260918492615928 0.9564409035881897
-0.6888681388075993 -0.4377612501201458 1.1460738348457489 -0.4541803995290639 -0.3261651800597583 0.8290575613310607
-0.8192444952421905 -0.8192444952421905 0.8248000508639733 -0.5616463896196010 -0.5953390966103276 0.5745647857939663
-0.4437699145146058 -1.1108985015742832 0.6985903617666012 -0.2784270124154517 -0.8272176911238275 0.4880464017377547
-1.1206207245332851 -0.7045990261610612 0.4474834730791476 -0.8215179480183222 -0.4897617423908456 0.2919618070468262
-0.7420330218252628 -1.0139679855714148 0.0000000000000000 -0.3779688089942235 -0.8451520639263468 -0.3779650357751686
-0.0165118671317739 -1.2669816325907148 0.4885932607940704 0.1224894525423226 -0.9500144624424509 0.2871739110122349
0.3527876582686138 -0.9550718610135785 0.5902668739560447 0.7159902611060206 -0.4656301907122540 0.5201408189121504
0.5333333373069763 -0.9562848107736667 -0.1510165097205385 0.6974521538668608 -0.6974601364752281 -0.1646506941814487
-0.0217395517479219 -1.1865424123065496 -0.0157308873534619 -0.0117034694818916 -0.8714908159645987 -0.4902721555334797
0.6009414948276547 -0.3307063588809406 0.4983692619174058 0.8915308164210101 -0.0930747717944532 0.4432943606985066
0.7381489703926339 -0.1961238568404016 -0.0111210654575767 0.9973655529129448 -0.0667811068088335 0.0283237998164622
0.6696988853690357 0.0976075183010699 -0.6973981173664638 0.9536510273927624 -0.2986107441906473 0.0371664015831024
0.8248395945522079 0.2186039686797380 -0.8355374016180208 0.4300153904805349 -0.6119862056373196 0.6637466746127693
0.8787231974338376 0.6667511985964597 -0.5357452915846695 0.9567714078605425 0.2520067051644814 0.1451932975474333
0.6547231132413691 -0.2987044025180521 -0.5173353432396733 0.9549628912971648 -0.0783338884274159 -0.2861986690556063
0.2375836626707925 1.2813361572921813 0.0866227088173388 0.0602506281524805 0.9487015846647227 -0.3103790667262784
0.5479113897969250 1.0026022509993926 -0.2920089897889933 -0.1826970727030037 0.5231874737278800 -0.8324041367989423
0.5422403117832261 0.7758797565445024 -0.2665503074257640 -0.7460978538155821 -0.5266116536057539 -0.4074532596732975
0.6929902769833236 0.5500204266945096 0.0087660541302419 -0.6844661528305290 -0.7205038696095438 -0.1112666145213750
0.9032134798234879 0.2017232419152861 -0.1131486668938471 -0.8754733223014493 0.4633109662982232 -0.1374387516178367
0.4562275978194816 0.0481595553283127 -0.3226965973351629 -0.1021259919376617 0.9942388642078074 0.0325478519954499
-0.0194444459180038 0.0194444459180038 0.0000000000000000 -0.0739216014609178 0.9957867943418273 -0.0542610085778056
-0.4941488164158533 -0.0075227892181429 0.3231284452299771 -0.1196293410042539 0.9914698583936329 -0.0517333612652172
-0.8052683010531283 -0.0576831747977479 -0.5910165121047243 -0.3057799634795689 0.9449110500600698 0.1167977799823686
-1.1075774848494775 -0.1715575279141665 0.1180457107695583 -0.5257311133352895 0.8506508076004142 -0.0000000004854750
-1.2791537607476009 -0.5051051279258443 0.0211612060705170 -0.9834206406834162 -0.1748042626099972 -0.0482422351388741
3 0 1 2 3
3 0 2 3 3
3 4 5 2 1
3 4 2 1 1
3 6 3 2 1
3 6 2 5 1
3 0 3 7 3
3 0 7 8 3
3 0 8 9 3
3 0 9 10 3
3 11 12 9 3
3 11 9 8 3
3 13 10 9 3
3 13 9 12 3
3 0 10 14 2
3 0 14 15 2
3 13 16 14 2
3 13 14 10 2
3 17 15 14 3
3 17 14 16 3
3 0 15 18 3
3 0 18 1 3
3 17 19 18 1
3 17 18 15 3
3 4 1 18 1
3 4 18 19 1
3 4 19 20 1
3 4 20 21 1
3 17 22 20 1
3 17 20 19 1
3 23 21 20 3
3 23 20 22 3
3 4 21 24 1
3 4 24 25 1
3 26 25 24 3
3 26 24 27 3
3 4 25 28 1
3 4 28 5 1
3 26 29 28 3
3 26 28 25 3
3 6 5 28 1
3 6 30 31 3
3 6 31 32 3
3 6 29 33 3
3 6 33 30 3
3 11 34 35 2
3 11 35 36 2
3 6 32 35 3
3 6 35 34 3
3 11 36 37 3
3 13 12 37 3
3 13 37 38 3
3 13 38 39 3
3 13 39 40 3
3 13 40 41 2
3 13 41 16 2
3 42 43 41 3
3 42 41 40 3
3 17 16 41 3
3 42 44 43 3
