ply
format ascii 1.0
comment mesh silhouettes
element vertex 29
property float x
property float y
property float z
property float nx
property float ny
property float nz
element face 48
property list uchar int vertex_index
property uchar int
end_header
0.3142696774903495 0.3142696774903495 0.3142696774903495 -0.5773617509659091 -0.5773451250593824 -0.5773439313717132
-0.0660791799738185 0.5970251892119665 0.0660791799738185 -0.0000000000000000 -1.0000000000000000 -0.0000000000000000
0.3491885344473187 0.3491885344473187 -0.3491885344473187 -0.5773441725893250 -0.5773638768528099 0.5773427578853320
0.5970251892119665 -0.0660791799738185 0.0660791799738185 -1.0000000000000000 -0.0000000000000000 -0.0000000000000000
0.3491885344473187 -0.3491885344473187 0.3491885344473187 -0.5773638768528099 0.5773427578853320 -0.5773441725893250
-0.0000000000000000 0.0000000000000000 0.6052601577686844 -0.0000000000000000 -0.0000000000000000 -1.0000000000000000
0.3142696774903495 -0.3142696774903495 -0.3142696774903495 -0.5773451250593824 0.5773439313717132 0.5773617509659091
0.0660791799738185 -0.5970251892119665 0.0660791799738185 0.0000000000000000 1.0000000000000000 -0.0000000000000000
-0.3142696774903495 -0.3142696774903495 0.3142696774903495 0.5773439313717132 0.5773617509659091 -0.5773451250593824
-0.3491885344473187 0.3491885344473187 0.3491885344473187 0.5773427578853320 -0.5773441725893250 -0.5773638768528099
-0.6004934016138287 -0.0384004505238209 0.0384004505238209 1.0000000000000000 -0.0000000000000000 0.0000000000000000
-0.3142696774903495 0.3142696774903495 -0.3142696774903495 0.5773439313717132 -0.5773617509659091 0.5773451250593824
-0.3491885344473187 -0.3491885344473187 -0.3491885344473187 0.5773427578853320 0.5773441725893250 0.5773638768528099
-0.4087257421558167 0.4087257421558167 0.1319205343816392 0.7021742384988426 -0.7021742384988426 -0.1179096161351601
0.4087257421558167 -0.4087257421558167 0.1319205343816392 -0.7021742384988426 0.7021742384988426 -0.1179096161351601
-0.4085683780413369 -0.4085683780413369 -0.0134172923356356 0.7024568516901228 0.7024568516901228 -0.1144934191436411
0.4085683780413369 0.4085683780413369 -0.0134172923356356 -0.7024568516901228 -0.7024568516901228 -0.1144934191436411
-0.5346060943329992 -0.0369146912277449 0.2303715031611110 0.8586762287033509 0.1824997557703957 -0.4789248097598792
0.0636457909943877 -0.5351451950572892 0.2477718767312181 -0.0101839137484325 0.8751247314707329 -0.4837902358140791
-0.0636457909943877 0.5351451950572892 0.2477718767312181 0.0101839137484325 -0.8751247314707329 -0.4837902358140791
0.5351451950572892 -0.0636457909943877 0.2477718767312181 -0.8751247314707329 0.0101839137484325 -0.4837902358140791
-0.3830504438682591 0.3830504331112173 -0.1332752403289089 0.6619258607445045 -0.6619258489723010 0.3517219432164354
0.3830504427737824 -0.3830504343405432 -0.1332752400751285 -0.6619258595701559 0.6619258503410564 0.3517219428505699
0.3953000148048093 0.3953000250941986 -0.2191348309175462 -0.6732502488628216 -0.6732502649688026 0.3057256664488374
0.3758587938883997 0.3758588048235273 0.1588200731425878 -0.6518164713692162 -0.6518164832743505 -0.3876474684344557
-0.3731456733669297 -0.3731456841940490 0.1677771055823776 0.6481271142562941 0.6481271260352406 -0.3998280533718313
-0.3864257745182294 -0.3864257668685896 -0.2535136216840157 0.6541929799364704 0.6541929671467644 0.3795564605398691
-0.3843236830901332 0.3843236739726864 0.2605937109238226 0.6497006043796383 -0.6497005889147823 -0.3946875592573419
0.3713346225152037 -0.3713346351444441 0.2986113519250054 -0.6226488353431807 0.6226488588683768 -0.4739375764757304
3 0 4 5 2
3 8 5 4 2
3 0 5 9 2
3 8 9 5 2
3 17 8 10 6
3 17 10 9 6
3 17 9 8 2
3 18 8 4 2
3 18 4 7 6
3 19 0 9 2
3 19 9 1 6
3 20 3 4 6
3 20 4 0 2
3 21 10 11 1
3 21 13 10 5
3 22 14 3 5
3 22 3 6 1
3 23 1 2 1
3 23 16 1 5
3 24 1 16 6
3 25 7 15 6
3 26 12 10 1
3 26 10 15 5
3 27 10 13 6
3 27 9 10 2
3 28 7 4 2
3 28 14 7 6
3 1 13 21 5
3 1 21 11 1
3 1 9 27 2
3 1 27 13 6
3 3 16 23 5
3 3 23 2 1
3 3 24 16 6
3 7 12 26 1
3 7 26 15 5
3 10 8 25 2
3 10 25 15 6
3 7 14 22 5
3 7 22 6 1
3 3 14 28 6
3 3 28 4 2
3 25 8 18 2
3 25 18 7 6
3 24 0 19 2
3 24 19 1 6
3 24 3 20 6
3 24 20 0 2
