ply
format ascii 1.0
comment mesh silhouettes
element vertex 13
property float x
property float y
property float z
property float nx
property float ny
property float nz
element face 16
property list uchar int vertex_index
property uchar int
end_header
0.3142696774903495 0.3142696774903495 0.3142696774903495 -0.5773617509659091 -0.5773451250593824 -0.5773439313717132
-0.0000000000000000 0.6052601577686844 0.0000000000000000 -0.0000000000000000 -1.0000000000000000 -0.0000000000000000
0.3491885344473187 0.3491885344473187 -0.3491885344473187 -0.5773441725893250 -0.5773638768528099 0.5773427578853320
0.6052601577686844 -0.0000000000000000 0.0000000000000000 -1.0000000000000000 -0.0000000000000000 -0.0000000000000000
0.3491885344473187 -0.3491885344473187 0.3491885344473187 -0.5773638768528099 0.5773427578853320 -0.5773441725893250
-0.0000000000000000 0.0000000000000000 0.6052601577686844 -0.0000000000000000 -0.0000000000000000 -1.0000000000000000
0.3142696774903495 -0.3142696774903495 -0.3142696774903495 -0.5773451250593824 0.5773439313717132 0.5773617509659091
-0.0000000000000000 -0.6052601577686844 0.0000000000000000 0.0000000000000000 1.0000000000000000 -0.0000000000000000
-0.3142696774903495 -0.3142696774903495 0.3142696774903495 0.5773439313717132 0.5773617509659091 -0.5773451250593824
-0.3491885344473187 0.3491885344473187 0.3491885344473187 0.5773427578853320 -0.5773441725893250 -0.5773638768528099
-0.6052601577686844 0.0000000000000000 -0.0000000000000000 1.0000000000000000 -0.0000000000000000 0.0000000000000000
-0.3142696774903495 0.3142696774903495 -0.3142696774903495 0.5773439313717132 -0.5773617509659091 0.5773451250593824
-0.3491885344473187 -0.3491885344473187 -0.3491885344473187 0.5773427578853320 0.5773441725893250 0.5773638768528099
3 0 1 2 3
3 0 2 3 3
3 0 3 4 3
3 0 4 5 2
3 6 7 4 3
3 6 4 3 3
3 8 5 4 2
3 8 4 7 3
3 0 5 9 2
3 0 9 1 3
3 8 10 9 3
3 8 9 5 2
3 11 1 9 3
3 11 9 10 3
3 8 7 12 3
3 8 12 10 3
